<?xml version="1.0" encoding="UTF-8" standalone="no"?>
<!DOCTYPE svg PUBLIC "-//W3C//DTD SVG 1.1//EN" "http://www.w3.org/Graphics/SVG/1.1/DTD/svg11.dtd">
<svg xmlns="http://www.w3.org/2000/svg" xmlns:xlink="http://www.w3.org/1999/xlink" version="1.1" width="160pt" height="125.521518pt" viewBox="0 0 160 125.521518">
<g enable-background="new">
<path transform="matrix(1,0,0,-1,0,497)" d="M 78.637 452.095 L 60.906 464.227 L 58.67 459.381 L 72.058 446.782 L 78.637 452.095 " fill="#ffcb04" fill-rule="evenodd"/>
<path transform="matrix(1,0,0,-1,0,497)" d="M 98.522 464.227 L 80.791 452.095 L 87.369 446.782 L 100.757 459.381 L 98.522 464.227 " fill="#ffcb04" fill-rule="evenodd"/>
<path transform="matrix(1,0,0,-1,0,497)" d="M 98.522 464.227 L 80.791 452.095 L 87.369 446.782 L 100.757 459.381 L 98.522 464.227 Z M 87.275 459.497 C 86.873 459.582 86.57 459.94 86.57 460.365 L 86.57 464.479 C 86.57 464.966 86.969 465.366 87.457 465.366 L 91.57 465.366 C 92.058 465.366 92.457 464.967 92.457 464.479 L 92.457 463.043 L 87.275 459.497 Z M 81.77 459.478 L 77.657 459.478 C 77.169 459.478 76.77 459.877 76.77 460.365 L 76.77 464.479 C 76.77 464.966 77.169 465.366 77.657 465.366 L 81.77 465.366 C 82.258 465.366 82.658 464.967 82.658 464.479 L 82.658 460.365 C 82.658 459.877 82.258 459.478 81.77 459.478 Z M 72.153 459.497 C 72.555 459.582 72.858 459.94 72.858 460.365 L 72.858 464.479 C 72.858 464.966 72.459 465.366 71.971 465.366 L 67.858 465.366 C 67.369 465.366 66.97 464.967 66.97 464.479 L 66.97 463.043 L 72.153 459.497 Z M 91.57 468.31 L 87.457 468.31 C 86.969 468.31 86.57 468.709 86.57 469.197 L 86.57 473.31 C 86.57 473.798 86.969 474.197 87.457 474.197 L 91.57 474.197 C 92.058 474.197 92.457 473.798 92.457 473.31 L 92.457 469.197 C 92.457 468.709 92.058 468.31 91.57 468.31 Z M 81.77 468.31 L 77.657 468.31 C 77.169 468.31 76.77 468.709 76.77 469.197 L 76.77 473.31 C 76.77 473.798 77.169 474.197 77.657 474.197 L 81.77 474.197 C 82.258 474.197 82.658 473.798 82.658 473.31 L 82.658 469.197 C 82.658 468.709 82.258 468.31 81.77 468.31 Z M 67.858 468.31 L 71.971 468.31 C 72.459 468.31 72.858 468.709 72.858 469.197 L 72.858 473.31 C 72.858 473.798 72.459 474.197 71.971 474.197 L 67.858 474.197 C 67.369 474.197 66.97 473.798 66.97 473.31 L 66.97 469.197 C 66.97 468.709 67.369 468.31 67.858 468.31 Z M 91.57 483.029 L 87.457 483.029 C 86.969 483.029 86.57 482.63 86.57 482.142 L 86.57 478.029 C 86.57 477.541 86.969 477.141 87.457 477.141 L 91.57 477.141 C 92.058 477.141 92.457 477.541 92.457 478.029 L 92.457 482.142 C 92.457 482.63 92.058 483.029 91.57 483.029 Z M 81.77 483.029 L 77.657 483.029 C 77.169 483.029 76.77 482.63 76.77 482.142 L 76.77 478.029 C 76.77 477.541 77.169 477.141 77.657 477.141 L 81.77 477.141 C 82.258 477.141 82.658 477.541 82.658 478.029 L 82.658 482.142 C 82.658 482.63 82.258 483.029 81.77 483.029 Z M 67.858 483.029 L 71.971 483.029 C 72.459 483.029 72.858 482.63 72.858 482.142 L 72.858 478.029 C 72.858 477.541 72.459 477.141 71.971 477.141 L 67.858 477.141 C 67.369 477.141 66.97 477.541 66.97 478.029 L 66.97 482.142 C 66.97 482.63 67.369 483.029 67.858 483.029 Z M 67.858 491.942 L 91.57 491.942 C 92.058 491.942 92.457 491.543 92.457 491.054 L 92.457 486.941 C 92.457 486.453 92.058 486.054 91.57 486.054 L 67.858 486.054 C 67.369 486.054 66.97 486.453 66.97 486.941 L 66.97 491.054 C 66.97 491.543 67.369 491.942 67.858 491.942 Z M 101.948 459.875 L 106.077 459.875 C 109.727 459.875 113.045 458.382 115.45 455.977 C 117.856 453.572 119.349 450.253 119.349 446.603 L 119.349 436.265 C 119.349 435.909 119.06 435.62 118.703 435.62 C 118.347 435.62 118.058 435.909 118.058 436.265 L 118.058 446.603 C 118.058 449.897 116.71 452.893 114.538 455.065 C 112.366 457.237 109.371 458.585 106.077 458.585 L 101.79 458.585 L 87.842 445.459 C 87.612 445.242 87.252 445.223 86.998 445.427 L 85.363 446.748 C 85.236 446.332 85.026 445.953 84.757 445.632 L 84.37 436.24 C 84.357 435.885 84.057 435.609 83.702 435.623 C 83.347 435.637 83.071 435.936 83.085 436.291 L 83.431 444.704 C 83.14 444.601 82.833 444.546 82.519 444.546 L 76.906 444.546 C 76.593 444.546 76.287 444.601 75.997 444.703 L 76.343 436.291 C 76.357 435.936 76.08 435.637 75.725 435.623 C 75.37 435.609 75.071 435.885 75.057 436.24 L 74.671 445.63 C 74.401 445.952 74.191 446.331 74.065 446.747 L 72.43 445.427 C 72.176 445.223 71.815 445.242 71.585 445.459 L 57.638 458.585 L 53.351 458.585 C 50.057 458.585 47.061 457.237 44.89 455.065 C 42.718 452.893 41.369 449.897 41.369 446.603 L 41.369 436.265 C 41.369 435.909 41.08 435.62 40.724 435.62 C 40.368 435.62 40.079 435.909 40.079 436.265 L 40.079 446.603 C 40.079 450.253 41.572 453.572 43.977 455.977 C 46.382 458.382 49.701 459.875 53.351 459.875 L 57.48 459.875 L 60.056 465.459 C 60.205 465.782 60.587 465.923 60.91 465.774 C 60.948 465.756 60.984 465.735 61.016 465.712 L 62.78 464.505 L 62.78 492.53 C 62.78 493.622 63.227 494.614 63.945 495.332 C 64.664 496.051 65.656 496.497 66.747 496.497 L 92.681 496.497 C 93.772 496.497 94.764 496.051 95.483 495.332 L 95.483 495.33 C 96.201 494.611 96.647 493.62 96.647 492.53 L 96.647 464.505 L 98.411 465.712 C 98.444 465.735 98.48 465.756 98.518 465.774 C 98.84 465.923 99.223 465.782 99.372 465.459 L 101.948 459.875 Z M 54.557 438.202 L 54.557 442.858 C 54.557 443.214 54.268 443.503 53.912 443.503 C 53.555 443.503 53.266 443.214 53.266 442.858 L 53.266 436.266 C 53.266 435.909 53.555 435.62 53.912 435.62 C 54.268 435.62 54.557 435.909 54.557 436.266 L 54.557 438.202 Z M 106.162 438.202 L 106.162 442.858 C 106.162 443.214 105.873 443.503 105.517 443.503 C 105.16 443.503 104.871 443.214 104.871 442.858 L 104.871 436.266 C 104.871 435.909 105.16 435.62 105.517 435.62 C 105.873 435.62 106.162 435.909 106.162 436.266 L 106.162 438.202 Z M 75.205 447.669 L 75.234 447.428 C 75.288 446.979 75.505 446.581 75.813 446.293 C 76.117 446.009 76.505 445.836 76.906 445.836 L 82.519 445.836 C 82.92 445.836 83.309 446.01 83.614 446.294 C 83.922 446.582 84.14 446.981 84.194 447.429 L 84.223 447.669 L 79.714 451.311 L 75.205 447.669 Z M 95.357 463.622 L 95.357 492.53 C 95.357 493.267 95.056 493.936 94.572 494.421 L 94.57 494.42 C 94.085 494.905 93.416 495.206 92.681 495.206 L 66.747 495.206 C 66.012 495.206 65.343 494.905 64.857 494.42 C 64.372 493.935 64.071 493.266 64.071 492.53 L 64.071 463.622 L 79.714 452.918 L 95.357 463.622 Z M 78.637 452.095 L 60.906 464.227 L 58.67 459.381 L 72.058 446.782 L 78.637 452.095 " fill="#231f20"/>
<path transform="matrix(1,0,0,-1,0,497)" d="M 9.513 406.381 L 13.085 406.381 L 8.249 418.645 L 13.085 428.506 L 9.608 428.506 L 5.12 418.929 L 5.057 418.929 L 5.057 428.506 L 1.58 428.506 L 1.58 406.381 L 5.057 406.381 L 5.057 413.177 L 6.131 415.2 L 9.513 406.381 Z M 14.064 423.196 C 14.064 422.569 14.123 421.974 14.254 421.411 C 14.381 420.847 14.591 420.294 14.886 419.746 C 15.181 419.203 15.571 418.65 16.066 418.081 C 16.556 417.512 17.167 416.912 17.889 416.274 C 18.642 415.616 19.238 415.026 19.67 414.504 C 20.107 413.977 20.412 413.472 20.597 412.987 C 20.776 412.508 20.865 412.002 20.86 411.47 C 20.86 410.943 20.787 410.527 20.639 410.211 C 20.491 409.895 20.286 409.668 20.017 409.526 C 19.748 409.384 19.427 409.315 19.059 409.321 C 18.69 409.315 18.368 409.384 18.1 409.526 C 17.831 409.668 17.626 409.895 17.478 410.211 C 17.331 410.527 17.257 410.943 17.257 411.47 L 17.257 413.05 L 13.97 413.05 L 13.97 411.691 C 13.97 410.506 14.165 409.505 14.554 408.678 C 14.944 407.851 15.524 407.219 16.293 406.781 C 17.062 406.349 18.015 406.134 19.153 406.128 C 20.291 406.134 21.245 406.349 22.014 406.781 C 22.783 407.219 23.362 407.851 23.752 408.678 C 24.142 409.505 24.337 410.506 24.337 411.691 C 24.342 412.318 24.279 412.913 24.147 413.477 C 24.021 414.046 23.81 414.599 23.515 415.141 C 23.22 415.684 22.83 416.237 22.335 416.806 C 21.845 417.375 21.24 417.976 20.512 418.613 C 19.759 419.272 19.164 419.862 18.732 420.388 C 18.295 420.91 17.989 421.416 17.805 421.9 C 17.626 422.38 17.536 422.891 17.541 423.418 C 17.547 424.202 17.694 424.761 17.994 425.103 C 18.295 425.441 18.722 425.609 19.28 425.599 C 19.838 425.609 20.265 425.441 20.565 425.103 C 20.865 424.761 21.013 424.202 21.018 423.418 L 21.018 422.501 L 24.305 422.501 L 24.305 423.196 C 24.305 424.382 24.11 425.388 23.731 426.215 C 23.347 427.042 22.772 427.669 22.014 428.106 C 21.255 428.538 20.312 428.754 19.185 428.759 C 18.058 428.754 17.115 428.538 16.356 428.106 C 15.597 427.669 15.023 427.042 14.639 426.215 C 14.259 425.388 14.064 424.382 14.064 423.196 Z M 26.328 406.381 L 29.804999 406.381 L 29.804999 428.506 L 26.328 428.506 Z M 35.811 425.346 L 41.816 425.346 L 41.816 428.506 L 32.334 428.506 L 32.334 406.381 L 41.816 406.381 L 41.816 409.542 L 35.811 409.542 L 35.811 416.021 L 40.583 416.021 L 40.583 419.182 L 35.811 419.182 L 35.811 425.346 Z M 49.181 415.547 L 50.761 415.547 L 50.761 411.47 C 50.761 410.948 50.688 410.527 50.54 410.211 C 50.392 409.895 50.187 409.668 49.918 409.526 C 49.65 409.384 49.328 409.315 48.96 409.321 C 48.591 409.315 48.269 409.384 48.001 409.526 C 47.732 409.668 47.527 409.895 47.379 410.211 C 47.232 410.527 47.158 410.948 47.158 411.47 L 47.158 423.418 C 47.163 424.202 47.326 424.761 47.643 425.103 C 47.964 425.441 48.401 425.609 48.96 425.599 C 49.518 425.609 49.955 425.441 50.276 425.103 C 50.593 424.761 50.756 424.202 50.761 423.418 L 50.761 421.047 L 54.048 421.047 L 54.048 423.196 C 54.048 424.382 53.854 425.388 53.463 426.215 C 53.074 427.042 52.494 427.669 51.725 428.106 C 50.956 428.538 50.003 428.754 48.865 428.759 C 47.727 428.754 46.773 428.538 46.004 428.106 C 45.235 427.669 44.656 427.042 44.266 426.215 C 43.876 425.388 43.681 424.382 43.681 423.196 L 43.681 411.691 C 43.681 410.506 43.876 409.505 44.266 408.678 C 44.656 407.851 45.235 407.219 46.004 406.781 C 46.773 406.349 47.727 406.134 48.865 406.128 C 50.003 406.134 50.956 406.349 51.725 406.781 C 52.494 407.219 53.074 407.851 53.463 408.678 C 53.854 409.505 54.048 410.506 54.048 411.691 L 54.048 418.708 L 49.181 418.708 L 49.181 415.547 Z M 59.485 423.418 C 59.49 424.202 59.653 424.761 59.97 425.103 C 60.291 425.441 60.728 425.609 61.287 425.599 C 61.845 425.609 62.282 425.441 62.604 425.103 C 62.92 424.761 63.083 424.202 63.088 423.418 L 63.088 411.47 C 63.083 410.685 62.92 410.126 62.604 409.784 C 62.282 409.447 61.845 409.278 61.287 409.289 C 60.728 409.278 60.291 409.447 59.97 409.784 C 59.653 410.126 59.49 410.685 59.485 411.47 L 59.485 423.418 Z M 56.008 411.691 C 56.008 410.506 56.213 409.505 56.619 408.678 C 57.025 407.851 57.615 407.219 58.4 406.781 C 59.185 406.349 60.149 406.134 61.287 406.128 C 62.424 406.134 63.388 406.349 64.173 406.781 C 64.958 407.219 65.548 407.851 65.954 408.678 C 66.36 409.505 66.565 410.506 66.565 411.691 L 66.565 423.196 C 66.565 424.382 66.36 425.388 65.954 426.215 C 65.548 427.042 64.958 427.669 64.173 428.106 C 63.388 428.538 62.424 428.754 61.287 428.759 C 60.149 428.754 59.185 428.538 58.4 428.106 C 57.615 427.669 57.025 427.042 56.619 426.215 C 56.213 425.388 56.008 424.382 56.008 423.196 L 56.008 411.691 Z M 77.786 406.381 L 82.4 406.381 L 84.866 428.506 L 81.831 428.506 L 80.062 410.933 L 79.998 410.933 L 78.292 428.506 L 74.941 428.506 L 73.298 411.059 L 73.234 411.059 L 71.401 428.506 L 68.019 428.506 L 70.484 406.381 L 75.257 406.381 L 76.49 418.171 L 76.553 418.171 L 77.786 406.381 Z M 89.86 406.381 L 93.337 406.381 L 93.337 413.714 L 97.73 428.506 L 94.411 428.506 L 91.788 418.423 L 91.725 418.423 L 89.101 428.506 L 85.466 428.506 L 89.86 413.714 L 89.86 406.381 Z M 98.394 415.863 L 104.715999 415.863 L 104.715999 419.02403 L 98.394 419.02403 Z M 113.976 423.07 C 113.982 422.48 113.929 421.921 113.818 421.384 C 113.708 420.847 113.523 420.315 113.265 419.778 C 113.007 419.24 112.659 418.676 112.217 418.081 C 111.774 417.491 111.221 416.849 110.563 416.148 C 109.915 415.473 109.372 414.836 108.924 414.246 C 108.482 413.656 108.124 413.082 107.855 412.529 C 107.581 411.975 107.386 411.417 107.265 410.859 C 107.144 410.301 107.086 409.71 107.086 409.099 L 107.086 406.381 L 117.137 406.381 L 117.137 409.542 L 110.563 409.542 C 110.547 409.621 110.537 409.7 110.537 409.779 C 110.531 409.858 110.531 409.937 110.531 410.016 C 110.526 410.395 110.6 410.79 110.753 411.191 C 110.91 411.591 111.179 412.055 111.564 412.571 C 111.943 413.087 112.475 413.714 113.155 414.441 C 113.961 415.3 114.635 416.1 115.188 416.849 C 115.736 417.597 116.178 418.318 116.516 419.008 C 116.848 419.698 117.085 420.388 117.237 421.073 C 117.385 421.758 117.458 422.464 117.453 423.196 C 117.453 424.382 117.258 425.388 116.869 426.215 C 116.479 427.042 115.899 427.669 115.13 428.106 C 114.361 428.538 113.407 428.754 112.27 428.759 C 111.132 428.754 110.178 428.538 109.409 428.106 C 108.64 427.669 108.06 427.042 107.671 426.215 C 107.281 425.388 107.086 424.382 107.086 423.196 L 107.086 421.047 L 110.373 421.047 L 110.373 423.418 C 110.378 424.202 110.542 424.761 110.858 425.103 C 111.179 425.441 111.617 425.609 112.175 425.599 C 112.543 425.604 112.865 425.535 113.134 425.388 C 113.402 425.24 113.608 424.982 113.755 424.613 C 113.903 424.245 113.976 423.728 113.976 423.07 Z M 118.781 410.395 L 125.418 410.395 L 125.418 406.381 L 128.895 406.381 L 128.895 410.395 L 130.539 410.395 L 130.539 413.556 L 128.895 413.556 L 128.895 428.506 L 125.102 428.506 L 118.781 413.556 L 118.781 410.395 Z M 121.973 413.556 L 125.355 421.742 L 125.418 421.742 L 125.418 413.556 L 121.973 413.556 Z M 132.119 406.381 L 135.47 406.381 L 135.47 409.73204 L 132.119 409.73204 Z M 143.119 428.506 L 137.998 428.506 L 137.998 406.381 L 141.475 406.381 L 141.475 414.694 L 143.119 414.694 C 144.857 414.699 146.153 415.168 147.017 416.1 C 147.876 417.033 148.303 418.387 148.303 420.162 L 148.303 423.038 C 148.303 424.814 147.876 426.167 147.017 427.1 C 146.153 428.032 144.857 428.501 143.119 428.506 Z M 143.119 425.346 C 143.488 425.351 143.798 425.288 144.051 425.156 C 144.309 425.03 144.499 424.808 144.631 424.503 C 144.762 424.197 144.826 423.781 144.826 423.26 L 144.826 419.941 C 144.826 419.419 144.762 419.003 144.631 418.698 C 144.499 418.392 144.309 418.176 144.051 418.044 C 143.798 417.913 143.488 417.849 143.119 417.855 L 141.475 417.855 L 141.475 425.346 L 143.119 425.346 Z M 149.914 406.381 L 159.112 406.381 L 159.112 409.542 L 153.391 409.542 L 153.391 428.506 L 149.914 428.506 L 149.914 406.381 " fill="#231f20"/>
<path transform="matrix(1,0,0,-1,0,497)" d="M 19.025 392.312 L 17.216 392.312 L 17.216 384.494 L 18.444 384.494 L 18.444 387.431 L 19.025 387.431 C 19.639 387.433 20.097 387.599 20.403 387.928 C 20.706 388.257 20.857 388.736 20.857 389.363 L 20.857 390.38 C 20.857 391.007 20.706 391.486 20.403 391.815 C 20.097 392.144 19.639 392.31 19.025 392.312 Z M 19.025 391.195 C 19.155 391.197 19.265 391.175 19.355 391.128 C 19.446 391.083 19.513 391.005 19.559 390.897 C 19.606 390.789 19.628 390.642 19.628 390.458 L 19.628 389.285 C 19.628 389.101 19.606 388.954 19.559 388.846 C 19.513 388.738 19.446 388.662 19.355 388.615 C 19.265 388.568 19.155 388.546 19.025 388.548 L 18.444 388.548 L 18.444 391.195 L 19.025 391.195 Z M 26.407 384.494 C 26.347 384.637 26.31 384.784 26.293 384.935 C 26.278 385.085 26.27 385.255 26.272 385.443 L 26.272 386.649 C 26.274 386.921 26.248 387.167 26.198 387.383 C 26.146 387.6 26.06 387.787 25.941 387.941 C 25.822 388.096 25.66 388.217 25.457 388.302 L 25.457 388.325 C 25.731 388.453 25.932 388.647 26.064 388.907 C 26.196 389.168 26.261 389.497 26.261 389.9 L 26.261 390.514 C 26.263 390.916 26.2 391.251 26.071 391.517 C 25.945 391.783 25.747 391.982 25.479 392.115 C 25.209 392.247 24.863 392.312 24.441 392.312 L 22.587 392.312 L 22.587 384.494 L 23.815 384.494 L 23.815 387.677 L 24.24 387.677 C 24.426 387.679 24.578 387.645 24.696 387.58 C 24.815 387.515 24.902 387.409 24.96 387.264 C 25.016 387.116 25.044 386.923 25.044 386.683 L 25.044 385.454 C 25.044 385.296 25.048 385.166 25.051 385.063 C 25.057 384.961 25.064 384.877 25.075 384.81 C 25.085 384.745 25.096 384.687 25.111 384.639 C 25.124 384.59 25.139 384.542 25.156 384.494 L 26.407 384.494 Z M 24.407 391.195 C 24.623 391.197 24.783 391.132 24.884 391.003 C 24.984 390.873 25.035 390.668 25.033 390.391 L 25.033 389.62 C 25.033 389.414 25.003 389.25 24.943 389.129 C 24.884 389.008 24.8 388.92 24.69 388.868 C 24.58 388.818 24.448 388.792 24.296 388.794 L 23.815 388.794 L 23.815 391.195 L 24.407 391.195 Z M 29.365 390.514 C 29.366 390.791 29.424 390.988 29.536 391.109 C 29.649 391.228 29.804 391.288 30.001 391.284 C 30.199 391.288 30.353 391.228 30.467 391.109 C 30.578 390.988 30.636 390.791 30.638 390.514 L 30.638 386.292 C 30.636 386.014 30.578 385.817 30.467 385.696 C 30.353 385.577 30.199 385.517 30.001 385.521 C 29.804 385.517 29.649 385.577 29.536 385.696 C 29.424 385.817 29.366 386.014 29.365 386.292 L 29.365 390.514 Z M 28.136 386.37 C 28.136 385.951 28.209 385.597 28.352 385.305 C 28.495 385.013 28.704 384.79 28.981 384.635 C 29.258 384.483 29.599 384.406 30.001 384.404 C 30.403 384.406 30.744 384.483 31.021 384.635 C 31.299 384.79 31.507 385.013 31.651 385.305 C 31.794 385.597 31.867 385.951 31.867 386.37 L 31.867 390.436 C 31.867 390.854 31.794 391.21 31.651 391.502 C 31.507 391.794 31.299 392.016 31.021 392.17 C 30.744 392.323 30.403 392.399 30.001 392.401 C 29.599 392.399 29.258 392.323 28.981 392.17 C 28.704 392.016 28.495 391.794 28.352 391.502 C 28.209 391.21 28.136 390.854 28.136 390.436 L 28.136 386.37 Z M 33.663 390.436 C 33.663 390.214 33.684 390.004 33.73 389.805 C 33.775 389.605 33.849 389.41 33.953 389.216 C 34.058 389.024 34.196 388.829 34.37 388.628 C 34.544 388.427 34.759 388.215 35.014 387.99 C 35.281 387.757 35.491 387.548 35.644 387.364 C 35.798 387.178 35.906 386.999 35.971 386.828 C 36.035 386.658 36.066 386.48 36.064 386.292 C 36.064 386.106 36.038 385.959 35.986 385.847 C 35.934 385.735 35.861 385.655 35.767 385.605 C 35.672 385.555 35.558 385.53 35.428 385.532 C 35.297 385.53 35.184 385.555 35.089 385.605 C 34.994 385.655 34.922 385.735 34.869 385.847 C 34.817 385.959 34.791 386.106 34.791 386.292 L 34.791 386.85 L 33.629 386.85 L 33.629 386.37 C 33.629 385.951 33.698 385.597 33.836 385.305 C 33.974 385.013 34.179 384.79 34.45 384.635 C 34.722 384.483 35.059 384.406 35.461 384.404 C 35.863 384.406 36.2 384.483 36.472 384.635 C 36.744 384.79 36.949 385.013 37.086 385.305 C 37.224 385.597 37.293 385.951 37.293 386.37 C 37.295 386.591 37.273 386.802 37.226 387.001 C 37.181 387.202 37.107 387.398 37.003 387.589 C 36.898 387.781 36.761 387.977 36.586 388.177 C 36.413 388.378 36.199 388.591 35.941 388.816 C 35.675 389.049 35.465 389.257 35.312 389.443 C 35.158 389.628 35.05 389.806 34.985 389.977 C 34.922 390.147 34.89 390.328 34.892 390.514 C 34.893 390.791 34.946 390.988 35.052 391.109 C 35.158 391.228 35.309 391.288 35.506 391.284 C 35.703 391.288 35.854 391.228 35.96 391.109 C 36.066 390.988 36.118 390.791 36.12 390.514 L 36.12 390.19 L 37.282 390.19 L 37.282 390.436 C 37.282 390.854 37.213 391.21 37.079 391.502 C 36.943 391.794 36.74 392.016 36.472 392.17 C 36.204 392.323 35.871 392.399 35.473 392.401 C 35.074 392.399 34.741 392.323 34.473 392.17 C 34.205 392.016 34.002 391.794 33.866 391.502 C 33.732 391.21 33.663 390.854 33.663 390.436 Z M 38.799 391.195 L 40.083 391.195 L 40.083 384.494 L 41.312 384.494 L 41.312 391.195 L 42.597 391.195 L 42.597 392.312 L 38.799 392.312 L 38.799 391.195 Z M 45.421 390.514 C 45.422 390.791 45.48 390.988 45.592 391.109 C 45.705 391.228 45.86 391.288 46.057 391.284 C 46.255 391.288 46.409 391.228 46.523 391.109 C 46.634 390.988 46.692 390.791 46.694 390.514 L 46.694 386.292 C 46.692 386.014 46.634 385.817 46.523 385.696 C 46.409 385.577 46.255 385.517 46.057 385.521 C 45.86 385.517 45.705 385.577 45.592 385.696 C 45.48 385.817 45.422 386.014 45.421 386.292 L 45.421 390.514 Z M 44.192 386.37 C 44.192 385.951 44.265 385.597 44.408 385.305 C 44.551 385.013 44.76 384.79 45.037 384.635 C 45.314 384.483 45.655 384.406 46.057 384.404 C 46.459 384.406 46.8 384.483 47.077 384.635 C 47.355 384.79 47.563 385.013 47.707 385.305 C 47.85 385.597 47.923 385.951 47.923 386.37 L 47.923 390.436 C 47.923 390.854 47.85 391.21 47.707 391.502 C 47.563 391.794 47.355 392.016 47.077 392.17 C 46.8 392.323 46.459 392.399 46.057 392.401 C 45.655 392.399 45.314 392.323 45.037 392.17 C 44.76 392.016 44.551 391.794 44.408 391.502 C 44.265 391.21 44.192 390.854 44.192 390.436 L 44.192 386.37 Z M 58.236 390.436 C 58.236 390.214 58.257 390.004 58.303 389.805 C 58.348 389.605 58.422 389.41 58.526 389.216 C 58.631 389.024 58.769 388.829 58.943 388.628 C 59.117 388.427 59.332 388.215 59.587 387.99 C 59.854 387.757 60.064 387.548 60.217 387.364 C 60.371 387.178 60.479 386.999 60.544 386.828 C 60.608 386.658 60.639 386.48 60.637 386.292 C 60.637 386.106 60.611 385.959 60.559 385.847 C 60.507 385.735 60.434 385.655 60.339 385.605 C 60.245 385.555 60.131 385.53 60.001 385.532 C 59.87 385.53 59.757 385.555 59.662 385.605 C 59.567 385.655 59.494 385.735 59.442 385.847 C 59.39 385.959 59.364 386.106 59.364 386.292 L 59.364 386.85 L 58.202 386.85 L 58.202 386.37 C 58.202 385.951 58.271 385.597 58.409 385.305 C 58.547 385.013 58.752 384.79 59.023 384.635 C 59.295 384.483 59.632 384.406 60.034 384.404 C 60.436 384.406 60.773 384.483 61.045 384.635 C 61.317 384.79 61.522 385.013 61.659 385.305 C 61.797 385.597 61.866 385.951 61.866 386.37 C 61.868 386.591 61.846 386.802 61.799 387.001 C 61.754 387.202 61.68 387.398 61.576 387.589 C 61.471 387.781 61.334 387.977 61.159 388.177 C 60.986 388.378 60.771 388.591 60.514 388.816 C 60.248 389.049 60.038 389.257 59.885 389.443 C 59.731 389.628 59.623 389.806 59.558 389.977 C 59.494 390.147 59.463 390.328 59.465 390.514 C 59.466 390.791 59.519 390.988 59.625 391.109 C 59.731 391.228 59.882 391.288 60.079 391.284 C 60.276 391.288 60.427 391.228 60.533 391.109 C 60.639 390.988 60.691 390.791 60.693 390.514 L 60.693 390.19 L 61.855 390.19 L 61.855 390.436 C 61.855 390.854 61.786 391.21 61.652 391.502 C 61.516 391.794 61.313 392.016 61.045 392.17 C 60.777 392.323 60.444 392.399 60.046 392.401 C 59.647 392.399 59.314 392.323 59.046 392.17 C 58.778 392.016 58.575 391.794 58.439 391.502 C 58.305 391.21 58.236 390.854 58.236 390.436 Z M 63.651 392.312 L 63.651 391.195 L 65.874 391.195 L 63.54 385.588 L 63.54 384.494 L 67.136 384.494 L 67.136 385.61 L 64.802 385.61 L 67.136 391.217 L 67.136 392.312 L 63.651 392.312 Z M 70.172 384.494 L 71.401 384.494 L 71.401 387.085 L 72.954 392.312 L 71.781 392.312 L 70.854 388.749 L 70.831 388.749 L 69.904 392.312 L 68.62 392.312 L 70.172 387.085 L 70.172 384.494 Z M 76.459 392.312 L 74.605 392.312 L 74.605 384.494 L 76.537 384.494 C 77.153 384.496 77.617 384.654 77.931 384.968 C 78.244 385.283 78.402 385.743 78.402 386.348 L 78.402 386.984 C 78.406 387.399 78.335 387.747 78.192 388.03 C 78.049 388.312 77.812 388.518 77.487 388.649 L 77.487 388.671 C 77.758 388.797 77.959 388.991 78.088 389.248 C 78.216 389.505 78.281 389.834 78.279 390.235 L 78.279 390.514 C 78.281 390.916 78.218 391.251 78.09 391.517 C 77.963 391.783 77.766 391.982 77.498 392.115 C 77.228 392.247 76.882 392.312 76.459 392.312 Z M 76.381 388.012 C 76.567 388.014 76.718 387.986 76.835 387.928 C 76.952 387.869 77.038 387.77 77.092 387.632 C 77.148 387.492 77.174 387.303 77.174 387.062 L 77.174 386.381 C 77.174 386.19 77.149 386.037 77.101 385.923 C 77.053 385.81 76.98 385.729 76.885 385.681 C 76.792 385.633 76.675 385.609 76.537 385.61 L 75.833 385.61 L 75.833 388.012 L 76.381 388.012 Z M 76.426 391.195 C 76.641 391.197 76.801 391.132 76.902 391.003 C 77.002 390.873 77.053 390.668 77.051 390.391 L 77.051 389.955 C 77.051 389.749 77.021 389.585 76.962 389.464 C 76.902 389.343 76.818 389.255 76.708 389.203 C 76.598 389.153 76.466 389.127 76.314 389.129 L 75.833 389.129 L 75.833 391.195 L 76.426 391.195 Z M 83.103 384.494 L 84.365 384.494 L 82.656 388.827 L 84.365 392.312 L 83.136 392.312 L 81.55 388.928 L 81.528 388.928 L 81.528 392.312 L 80.299 392.312 L 80.299 384.494 L 81.528 384.494 L 81.528 386.895 L 81.908 387.61 L 83.103 384.494 Z M 87.133 390.514 C 87.135 390.791 87.193 390.988 87.304 391.109 C 87.418 391.228 87.572 391.288 87.77 391.284 C 87.967 391.288 88.122 391.228 88.235 391.109 C 88.347 390.988 88.404 390.791 88.406 390.514 L 88.406 386.292 C 88.404 386.014 88.347 385.817 88.235 385.696 C 88.122 385.577 87.967 385.517 87.77 385.521 C 87.572 385.517 87.418 385.577 87.304 385.696 C 87.193 385.817 87.135 386.014 87.133 386.292 L 87.133 390.514 Z M 85.904 386.37 C 85.904 385.951 85.977 385.597 86.12 385.305 C 86.264 385.013 86.472 384.79 86.75 384.635 C 87.027 384.483 87.368 384.406 87.77 384.404 C 88.172 384.406 88.512 384.483 88.79 384.635 C 89.067 384.79 89.276 385.013 89.419 385.305 C 89.562 385.597 89.635 385.951 89.635 386.37 L 89.635 390.436 C 89.635 390.854 89.562 391.21 89.419 391.502 C 89.276 391.794 89.067 392.016 88.79 392.17 C 88.512 392.323 88.172 392.399 87.77 392.401 C 87.368 392.399 87.027 392.323 86.75 392.17 C 86.472 392.016 86.264 391.794 86.12 391.502 C 85.977 391.21 85.904 390.854 85.904 390.436 L 85.904 386.37 Z M 103.277 384.494 L 104.908 384.494 L 105.779 392.312 L 104.707 392.312 L 104.081 386.102 L 104.059 386.102 L 103.456 392.312 L 102.272 392.312 L 101.691 386.146 L 101.668 386.146 L 101.021 392.312 L 99.826 392.312 L 100.697 384.494 L 102.383 384.494 L 102.819 388.66 L 102.841 388.66 L 103.277 384.494 Z M 108.703 384.494 L 109.932 384.494 L 109.932 387.085 L 111.484 392.312 L 110.311 392.312 L 109.385 388.749 L 109.362 388.749 L 108.435 392.312 L 107.151 392.312 L 108.703 387.085 L 108.703 384.494 Z M 114.811 387.733 L 115.37 387.733 L 115.37 386.292 C 115.37 386.108 115.344 385.959 115.291 385.847 C 115.239 385.735 115.167 385.655 115.072 385.605 C 114.977 385.555 114.863 385.53 114.733 385.532 C 114.603 385.53 114.489 385.555 114.394 385.605 C 114.299 385.655 114.226 385.735 114.174 385.847 C 114.122 385.959 114.096 386.108 114.096 386.292 L 114.096 390.514 C 114.098 390.791 114.156 390.988 114.268 391.109 C 114.381 391.228 114.535 391.288 114.733 391.284 C 114.93 391.288 115.085 391.228 115.198 391.109 C 115.31 390.988 115.368 390.791 115.37 390.514 L 115.37 389.676 L 116.531 389.676 L 116.531 390.436 C 116.531 390.854 116.462 391.21 116.324 391.502 C 116.187 391.794 115.982 392.016 115.71 392.17 C 115.438 392.323 115.101 392.399 114.699 392.401 C 114.297 392.399 113.96 392.323 113.689 392.17 C 113.417 392.016 113.212 391.794 113.074 391.502 C 112.936 391.21 112.867 390.854 112.867 390.436 L 112.867 386.37 C 112.867 385.951 112.936 385.597 113.074 385.305 C 113.212 385.013 113.417 384.79 113.689 384.635 C 113.96 384.483 114.297 384.406 114.699 384.404 C 115.101 384.406 115.438 384.483 115.71 384.635 C 115.982 384.79 116.187 385.013 116.324 385.305 C 116.462 385.597 116.531 385.951 116.531 386.37 L 116.531 388.85 L 114.811 388.85 L 114.811 387.733 Z M 119.612 390.514 C 119.614 390.791 119.672 390.988 119.783 391.109 C 119.897 391.228 120.051 391.288 120.249 391.284 C 120.446 391.288 120.601 391.228 120.714 391.109 C 120.826 390.988 120.884 390.791 120.886 390.514 L 120.886 386.292 C 120.884 386.014 120.826 385.817 120.714 385.696 C 120.601 385.577 120.446 385.517 120.249 385.521 C 120.051 385.517 119.897 385.577 119.783 385.696 C 119.672 385.817 119.614 386.014 119.612 386.292 L 119.612 390.514 Z M 118.383 386.37 C 118.383 385.951 118.456 385.597 118.599 385.305 C 118.743 385.013 118.951 384.79 119.229 384.635 C 119.506 384.483 119.847 384.406 120.249 384.404 C 120.651 384.406 120.992 384.483 121.269 384.635 C 121.546 384.79 121.755 385.013 121.898 385.305 C 122.042 385.597 122.114 385.951 122.114 386.37 L 122.114 390.436 C 122.114 390.854 122.042 391.21 121.898 391.502 C 121.755 391.794 121.546 392.016 121.269 392.17 C 120.992 392.323 120.651 392.399 120.249 392.401 C 119.847 392.399 119.506 392.323 119.229 392.17 C 118.951 392.016 118.743 391.794 118.599 391.502 C 118.456 391.21 118.383 390.854 118.383 390.436 L 118.383 386.37 Z M 124.067 384.494 L 126.01 384.494 C 126.625 384.496 127.083 384.661 127.388 384.99 C 127.691 385.32 127.842 385.798 127.842 386.426 L 127.842 390.38 C 127.842 391.007 127.691 391.486 127.388 391.815 C 127.083 392.144 126.625 392.31 126.01 392.312 L 124.067 392.312 L 124.067 384.494 Z M 125.988 391.195 C 126.118 391.197 126.23 391.173 126.325 391.122 C 126.418 391.072 126.489 390.992 126.539 390.88 C 126.587 390.769 126.614 390.622 126.614 390.436 L 126.614 386.37 C 126.614 386.184 126.587 386.037 126.539 385.925 C 126.489 385.813 126.418 385.733 126.325 385.683 C 126.23 385.633 126.118 385.609 125.988 385.61 L 125.295 385.61 L 125.295 391.195 L 125.988 391.195 Z M 132.409 384.494 L 133.671 384.494 L 133.671 392.312 L 132.576 392.312 L 132.576 387.632 L 132.554 387.632 L 131.314 392.312 L 129.773 392.312 L 129.773 384.494 L 130.878 384.494 L 130.878 390.156 L 130.901 390.156 L 132.409 384.494 Z M 135.713 384.494 L 136.942 384.494 L 136.942 392.31199 L 135.713 392.31199 Z M 140.223 391.195 L 142.346 391.195 L 142.346 392.312 L 138.995 392.312 L 138.995 384.494 L 142.346 384.494 L 142.346 385.61 L 140.223 385.61 L 140.223 387.9 L 141.91 387.9 L 141.91 389.017 L 140.223 389.017 L 140.223 391.195 " fill="#939598"/>
<path transform="matrix(1,0,0,-1,0,497)" d="M .526 435.121 C .25 435.121 .026 435.345 .026 435.621 C .026 435.897 .25 436.121 .526 436.121 L 158.902 436.121 C 159.178 436.121 159.402 435.897 159.402 435.621 C 159.402 435.345 159.178 435.121 158.902 435.121 L .526 435.121 " fill="#231f20"/>
<path transform="matrix(1,0,0,-1,0,497)" d="M .526 397.818 C .25 397.818 .026 398.042 .026 398.318 C .026 398.594 .25 398.818 .526 398.818 L 158.902 398.818 C 159.178 398.818 159.402 398.594 159.402 398.318 C 159.402 398.042 159.178 397.818 158.902 397.818 L .526 397.818 " fill="#231f20"/>
<path transform="matrix(1,0,0,-1,0,497)" d="M 53.481 389.996 C 54.362 389.996 55.075 389.283 55.075 388.403 C 55.075 387.523 54.362 386.809 53.481 386.809 C 52.601 386.809 51.888 387.523 51.888 388.403 C 51.888 389.283 52.601 389.996 53.481 389.996 " fill="#939598" fill-rule="evenodd"/>
<path transform="matrix(1,0,0,-1,0,497)" d="M 95.013 389.996 C 95.893 389.996 96.607 389.283 96.607 388.403 C 96.607 387.523 95.893 386.809 95.013 386.809 C 94.133 386.809 93.419 387.523 93.419 388.403 C 93.419 389.283 94.133 389.996 95.013 389.996 " fill="#939598" fill-rule="evenodd"/>
<path transform="matrix(1,0,0,-1,0,497)" d="M 78.637 260.282 L 60.906 272.415 L 58.67 267.568 L 72.058 254.969 L 78.637 260.282 " fill="#939598" fill-rule="evenodd"/>
<path transform="matrix(1,0,0,-1,0,497)" d="M 98.522 272.415 L 80.791 260.282 L 87.369 254.969 L 100.757 267.568 L 98.522 272.415 " fill="#939598" fill-rule="evenodd"/>
<path transform="matrix(1,0,0,-1,0,497)" d="M 98.522 272.415 L 80.791 260.282 L 87.369 254.969 L 100.757 267.568 L 98.522 272.415 Z M 87.275 267.684 C 86.873 267.769 86.57 268.127 86.57 268.552 L 86.57 272.666 C 86.57 273.154 86.969 273.553 87.457 273.553 L 91.57 273.553 C 92.058 273.553 92.457 273.154 92.457 272.666 L 92.457 271.231 L 87.275 267.684 Z M 81.77 267.665 L 77.657 267.665 C 77.169 267.665 76.77 268.064 76.77 268.552 L 76.77 272.666 C 76.77 273.154 77.169 273.553 77.657 273.553 L 81.77 273.553 C 82.258 273.553 82.658 273.154 82.658 272.666 L 82.658 268.552 C 82.658 268.064 82.258 267.665 81.77 267.665 Z M 72.153 267.684 C 72.555 267.769 72.858 268.127 72.858 268.552 L 72.858 272.666 C 72.858 273.154 72.459 273.553 71.971 273.553 L 67.858 273.553 C 67.369 273.553 66.97 273.154 66.97 272.666 L 66.97 271.231 L 72.153 267.684 Z M 91.57 276.497 L 87.457 276.497 C 86.969 276.497 86.57 276.896 86.57 277.384 L 86.57 281.497 C 86.57 281.985 86.969 282.385 87.457 282.385 L 91.57 282.385 C 92.058 282.385 92.457 281.985 92.457 281.497 L 92.457 277.384 C 92.457 276.896 92.058 276.497 91.57 276.497 Z M 81.77 276.497 L 77.657 276.497 C 77.169 276.497 76.77 276.896 76.77 277.384 L 76.77 281.497 C 76.77 281.985 77.169 282.385 77.657 282.385 L 81.77 282.385 C 82.258 282.385 82.658 281.985 82.658 281.497 L 82.658 277.384 C 82.658 276.896 82.258 276.497 81.77 276.497 Z M 67.858 276.497 L 71.971 276.497 C 72.459 276.497 72.858 276.896 72.858 277.384 L 72.858 281.497 C 72.858 281.985 72.459 282.385 71.971 282.385 L 67.858 282.385 C 67.369 282.385 66.97 281.985 66.97 281.497 L 66.97 277.384 C 66.97 276.896 67.369 276.497 67.858 276.497 Z M 91.57 291.216 L 87.457 291.216 C 86.969 291.216 86.57 290.817 86.57 290.329 L 86.57 286.216 C 86.57 285.728 86.969 285.329 87.457 285.329 L 91.57 285.329 C 92.058 285.329 92.457 285.728 92.457 286.216 L 92.457 290.329 C 92.457 290.817 92.058 291.216 91.57 291.216 Z M 81.77 291.216 L 77.657 291.216 C 77.169 291.216 76.77 290.817 76.77 290.329 L 76.77 286.216 C 76.77 285.728 77.169 285.329 77.657 285.329 L 81.77 285.329 C 82.258 285.329 82.658 285.728 82.658 286.216 L 82.658 290.329 C 82.658 290.817 82.258 291.216 81.77 291.216 Z M 67.858 291.216 L 71.971 291.216 C 72.459 291.216 72.858 290.817 72.858 290.329 L 72.858 286.216 C 72.858 285.728 72.459 285.329 71.971 285.329 L 67.858 285.329 C 67.369 285.329 66.97 285.728 66.97 286.216 L 66.97 290.329 C 66.97 290.817 67.369 291.216 67.858 291.216 Z M 67.858 300.129 L 91.57 300.129 C 92.058 300.129 92.457 299.73 92.457 299.242 L 92.457 295.128 C 92.457 294.64 92.058 294.241 91.57 294.241 L 67.858 294.241 C 67.369 294.241 66.97 294.64 66.97 295.128 L 66.97 299.242 C 66.97 299.73 67.369 300.129 67.858 300.129 Z M 101.948 268.063 L 106.077 268.063 C 109.727 268.063 113.045 266.569 115.45 264.164 C 117.856 261.759 119.349 258.441 119.349 254.79 L 119.349 244.452 C 119.349 244.096 119.06 243.807 118.703 243.807 C 118.347 243.807 118.058 244.096 118.058 244.452 L 118.058 254.79 C 118.058 258.085 116.71 261.08 114.538 263.252 C 112.366 265.424 109.371 266.772 106.077 266.772 L 101.79 266.772 L 87.842 253.646 C 87.612 253.429 87.252 253.41 86.998 253.614 L 85.363 254.935 C 85.236 254.519 85.026 254.14 84.757 253.819 L 84.37 244.428 C 84.357 244.073 84.057 243.796 83.702 243.81 C 83.347 243.824 83.071 244.123 83.085 244.478 L 83.431 252.891 C 83.14 252.789 82.833 252.733 82.519 252.733 L 76.906 252.733 C 76.593 252.733 76.287 252.788 75.997 252.89 L 76.343 244.478 C 76.357 244.123 76.08 243.824 75.725 243.81 C 75.37 243.796 75.071 244.073 75.057 244.428 L 74.671 253.817 C 74.401 254.139 74.191 254.518 74.065 254.935 L 72.43 253.614 C 72.176 253.41 71.815 253.429 71.585 253.646 L 57.638 266.772 L 53.351 266.772 C 50.057 266.772 47.061 265.424 44.89 263.252 C 42.718 261.08 41.369 258.085 41.369 254.79 L 41.369 244.452 C 41.369 244.096 41.08 243.807 40.724 243.807 C 40.368 243.807 40.079 244.096 40.079 244.452 L 40.079 254.79 C 40.079 258.441 41.572 261.759 43.977 264.164 C 46.382 266.569 49.701 268.063 53.351 268.063 L 57.48 268.063 L 60.056 273.646 C 60.205 273.969 60.587 274.11 60.91 273.961 C 60.948 273.944 60.984 273.923 61.016 273.899 L 62.78 272.692 L 62.78 300.718 C 62.78 301.809 63.227 302.801 63.945 303.519 C 64.664 304.238 65.656 304.684 66.747 304.684 L 92.681 304.684 C 93.772 304.684 94.764 304.238 95.483 303.519 L 95.483 303.517 C 96.201 302.798 96.647 301.807 96.647 300.718 L 96.647 272.692 L 98.411 273.899 C 98.444 273.923 98.48 273.944 98.518 273.961 C 98.84 274.11 99.223 273.969 99.372 273.646 L 101.948 268.063 Z M 54.557 246.389 L 54.557 251.045 C 54.557 251.401 54.268 251.69 53.912 251.69 C 53.555 251.69 53.266 251.401 53.266 251.045 L 53.266 244.453 C 53.266 244.096 53.555 243.807 53.912 243.807 C 54.268 243.807 54.557 244.096 54.557 244.453 L 54.557 246.389 Z M 106.162 246.389 L 106.162 251.045 C 106.162 251.401 105.873 251.69 105.517 251.69 C 105.16 251.69 104.871 251.401 104.871 251.045 L 104.871 244.453 C 104.871 244.096 105.16 243.807 105.517 243.807 C 105.873 243.807 106.162 244.096 106.162 244.453 L 106.162 246.389 Z M 75.205 255.856 L 75.234 255.615 C 75.288 255.167 75.505 254.768 75.813 254.481 C 76.117 254.197 76.505 254.024 76.906 254.024 L 82.519 254.024 C 82.92 254.024 83.309 254.197 83.614 254.481 C 83.922 254.769 84.14 255.168 84.194 255.616 L 84.223 255.856 L 79.714 259.498 L 75.205 255.856 Z M 95.357 271.809 L 95.357 300.718 C 95.357 301.454 95.056 302.123 94.572 302.608 L 94.57 302.607 C 94.085 303.092 93.416 303.394 92.681 303.394 L 66.747 303.394 C 66.012 303.394 65.343 303.092 64.857 302.607 C 64.372 302.122 64.071 301.453 64.071 300.718 L 64.071 271.809 L 79.714 261.105 L 95.357 271.809 Z M 78.637 260.282 L 60.906 272.415 L 58.67 267.568 L 72.058 254.969 L 78.637 260.282 " fill="#231f20"/>
<path transform="matrix(1,0,0,-1,0,497)" d="M 9.513 214.568 L 13.085 214.568 L 8.249 226.832 L 13.085 236.693 L 9.608 236.693 L 5.12 227.116 L 5.057 227.116 L 5.057 236.693 L 1.58 236.693 L 1.58 214.568 L 5.057 214.568 L 5.057 221.364 L 6.131 223.387 L 9.513 214.568 Z M 14.064 231.384 C 14.064 230.757 14.123 230.161 14.254 229.598 C 14.381 229.034 14.591 228.481 14.886 227.933 C 15.181 227.39 15.571 226.837 16.066 226.268 C 16.556 225.699 17.167 225.099 17.889 224.461 C 18.642 223.803 19.238 223.213 19.67 222.691 C 20.107 222.164 20.412 221.659 20.597 221.174 C 20.776 220.695 20.865 220.189 20.86 219.657 C 20.86 219.13 20.787 218.714 20.639 218.398 C 20.491 218.082 20.286 217.856 20.017 217.713 C 19.748 217.571 19.427 217.502 19.059 217.508 C 18.69 217.502 18.368 217.571 18.1 217.713 C 17.831 217.856 17.626 218.082 17.478 218.398 C 17.331 218.714 17.257 219.13 17.257 219.657 L 17.257 221.238 L 13.97 221.238 L 13.97 219.878 C 13.97 218.693 14.165 217.692 14.554 216.865 C 14.944 216.038 15.524 215.406 16.293 214.968 C 17.062 214.536 18.015 214.321 19.153 214.315 C 20.291 214.321 21.245 214.536 22.014 214.968 C 22.783 215.406 23.362 216.038 23.752 216.865 C 24.142 217.692 24.337 218.693 24.337 219.878 C 24.342 220.505 24.279 221.1 24.147 221.664 C 24.021 222.233 23.81 222.786 23.515 223.329 C 23.22 223.872 22.83 224.425 22.335 224.993 C 21.845 225.562 21.24 226.163 20.512 226.8 C 19.759 227.459 19.164 228.049 18.732 228.576 C 18.295 229.097 17.989 229.603 17.805 230.088 C 17.626 230.567 17.536 231.078 17.541 231.605 C 17.547 232.39 17.694 232.948 17.994 233.29 C 18.295 233.628 18.722 233.796 19.28 233.786 C 19.838 233.796 20.265 233.628 20.565 233.29 C 20.865 232.948 21.013 232.39 21.018 231.605 L 21.018 230.688 L 24.305 230.688 L 24.305 231.384 C 24.305 232.569 24.11 233.575 23.731 234.402 C 23.347 235.229 22.772 235.856 22.014 236.293 C 21.255 236.725 20.312 236.941 19.185 236.947 C 18.058 236.941 17.115 236.725 16.356 236.293 C 15.597 235.856 15.023 235.229 14.639 234.402 C 14.259 233.575 14.064 232.569 14.064 231.384 Z M 26.328 214.568 L 29.804999 214.568 L 29.804999 236.693 L 26.328 236.693 Z M 35.811 233.533 L 41.816 233.533 L 41.816 236.693 L 32.334 236.693 L 32.334 214.568 L 41.816 214.568 L 41.816 217.729 L 35.811 217.729 L 35.811 224.209 L 40.583 224.209 L 40.583 227.369 L 35.811 227.369 L 35.811 233.533 Z M 49.181 223.734 L 50.761 223.734 L 50.761 219.657 C 50.761 219.135 50.688 218.714 50.54 218.398 C 50.392 218.082 50.187 217.856 49.918 217.713 C 49.65 217.571 49.328 217.502 48.96 217.508 C 48.591 217.502 48.269 217.571 48.001 217.713 C 47.732 217.856 47.527 218.082 47.379 218.398 C 47.232 218.714 47.158 219.135 47.158 219.657 L 47.158 231.605 C 47.163 232.39 47.326 232.948 47.643 233.29 C 47.964 233.628 48.401 233.796 48.96 233.786 C 49.518 233.796 49.955 233.628 50.276 233.29 C 50.593 232.948 50.756 232.39 50.761 231.605 L 50.761 229.234 L 54.048 229.234 L 54.048 231.384 C 54.048 232.569 53.854 233.575 53.463 234.402 C 53.074 235.229 52.494 235.856 51.725 236.293 C 50.956 236.725 50.003 236.941 48.865 236.947 C 47.727 236.941 46.773 236.725 46.004 236.293 C 45.235 235.856 44.656 235.229 44.266 234.402 C 43.876 233.575 43.681 232.569 43.681 231.384 L 43.681 219.878 C 43.681 218.693 43.876 217.692 44.266 216.865 C 44.656 216.038 45.235 215.406 46.004 214.968 C 46.773 214.536 47.727 214.321 48.865 214.315 C 50.003 214.321 50.956 214.536 51.725 214.968 C 52.494 215.406 53.074 216.038 53.463 216.865 C 53.854 217.692 54.048 218.693 54.048 219.878 L 54.048 226.895 L 49.181 226.895 L 49.181 223.734 Z M 59.485 231.605 C 59.49 232.39 59.653 232.948 59.97 233.29 C 60.291 233.628 60.728 233.796 61.287 233.786 C 61.845 233.796 62.282 233.628 62.604 233.29 C 62.92 232.948 63.083 232.39 63.088 231.605 L 63.088 219.657 C 63.083 218.872 62.92 218.314 62.604 217.971 C 62.282 217.634 61.845 217.465 61.287 217.476 C 60.728 217.465 60.291 217.634 59.97 217.971 C 59.653 218.314 59.49 218.872 59.485 219.657 L 59.485 231.605 Z M 56.008 219.878 C 56.008 218.693 56.213 217.692 56.619 216.865 C 57.025 216.038 57.615 215.406 58.4 214.968 C 59.185 214.536 60.149 214.321 61.287 214.315 C 62.424 214.321 63.388 214.536 64.173 214.968 C 64.958 215.406 65.548 216.038 65.954 216.865 C 66.36 217.692 66.565 218.693 66.565 219.878 L 66.565 231.384 C 66.565 232.569 66.36 233.575 65.954 234.402 C 65.548 235.229 64.958 235.856 64.173 236.293 C 63.388 236.725 62.424 236.941 61.287 236.947 C 60.149 236.941 59.185 236.725 58.4 236.293 C 57.615 235.856 57.025 235.229 56.619 234.402 C 56.213 233.575 56.008 232.569 56.008 231.384 L 56.008 219.878 Z M 77.786 214.568 L 82.4 214.568 L 84.866 236.693 L 81.831 236.693 L 80.062 219.12 L 79.998 219.12 L 78.292 236.693 L 74.941 236.693 L 73.298 219.246 L 73.234 219.246 L 71.401 236.693 L 68.019 236.693 L 70.484 214.568 L 75.257 214.568 L 76.49 226.358 L 76.553 226.358 L 77.786 214.568 Z M 89.86 214.568 L 93.337 214.568 L 93.337 221.901 L 97.73 236.693 L 94.411 236.693 L 91.788 226.611 L 91.725 226.611 L 89.101 236.693 L 85.466 236.693 L 89.86 221.901 L 89.86 214.568 Z M 98.394 224.05 L 104.715999 224.05 L 104.715999 227.211 L 98.394 227.211 Z M 113.976 231.257 C 113.982 230.667 113.929 230.109 113.818 229.571 C 113.708 229.034 113.523 228.502 113.265 227.965 C 113.007 227.427 112.659 226.863 112.217 226.268 C 111.774 225.678 111.221 225.036 110.563 224.335 C 109.915 223.661 109.372 223.023 108.924 222.433 C 108.482 221.843 108.124 221.269 107.855 220.716 C 107.581 220.163 107.386 219.604 107.265 219.046 C 107.144 218.488 107.086 217.898 107.086 217.286 L 107.086 214.568 L 117.137 214.568 L 117.137 217.729 L 110.563 217.729 C 110.547 217.808 110.537 217.887 110.537 217.966 C 110.531 218.045 110.531 218.124 110.531 218.203 C 110.526 218.582 110.6 218.977 110.753 219.378 C 110.91 219.778 111.179 220.242 111.564 220.758 C 111.943 221.274 112.475 221.901 113.155 222.628 C 113.961 223.487 114.635 224.288 115.188 225.036 C 115.736 225.784 116.178 226.505 116.516 227.195 C 116.848 227.886 117.085 228.576 117.237 229.26 C 117.385 229.945 117.458 230.651 117.453 231.384 C 117.453 232.569 117.258 233.575 116.869 234.402 C 116.479 235.229 115.899 235.856 115.13 236.293 C 114.361 236.725 113.407 236.941 112.27 236.947 C 111.132 236.941 110.178 236.725 109.409 236.293 C 108.64 235.856 108.06 235.229 107.671 234.402 C 107.281 233.575 107.086 232.569 107.086 231.384 L 107.086 229.234 L 110.373 229.234 L 110.373 231.605 C 110.378 232.39 110.542 232.948 110.858 233.29 C 111.179 233.628 111.617 233.796 112.175 233.786 C 112.543 233.791 112.865 233.722 113.134 233.575 C 113.402 233.427 113.608 233.169 113.755 232.801 C 113.903 232.432 113.976 231.916 113.976 231.257 Z M 118.781 218.582 L 125.418 218.582 L 125.418 214.568 L 128.895 214.568 L 128.895 218.582 L 130.539 218.582 L 130.539 221.743 L 128.895 221.743 L 128.895 236.693 L 125.102 236.693 L 118.781 221.743 L 118.781 218.582 Z M 121.973 221.743 L 125.355 229.929 L 125.418 229.929 L 125.418 221.743 L 121.973 221.743 Z M 132.119 214.568 L 135.47 214.568 L 135.47 217.91899 L 132.119 217.91899 Z M 143.119 236.693 L 137.998 236.693 L 137.998 214.568 L 141.475 214.568 L 141.475 222.881 L 143.119 222.881 C 144.857 222.886 146.153 223.355 147.017 224.288 C 147.876 225.22 148.303 226.574 148.303 228.349 L 148.303 231.225 C 148.303 233.001 147.876 234.355 147.017 235.287 C 146.153 236.22 144.857 236.688 143.119 236.693 Z M 143.119 233.533 C 143.488 233.538 143.798 233.475 144.051 233.343 C 144.309 233.217 144.499 232.995 144.631 232.69 C 144.762 232.384 144.826 231.968 144.826 231.447 L 144.826 228.128 C 144.826 227.606 144.762 227.19 144.631 226.885 C 144.499 226.579 144.309 226.363 144.051 226.231 C 143.798 226.1 143.488 226.037 143.119 226.042 L 141.475 226.042 L 141.475 233.533 L 143.119 233.533 Z M 149.914 214.568 L 159.112 214.568 L 159.112 217.729 L 153.391 217.729 L 153.391 236.693 L 149.914 236.693 L 149.914 214.568 " fill="#231f20"/>
<path transform="matrix(1,0,0,-1,0,497)" d="M 19.025 200.499 L 17.216 200.499 L 17.216 192.681 L 18.444 192.681 L 18.444 195.618 L 19.025 195.618 C 19.639 195.62 20.097 195.786 20.403 196.115 C 20.706 196.445 20.857 196.923 20.857 197.55 L 20.857 198.567 C 20.857 199.194 20.706 199.673 20.403 200.002 C 20.097 200.331 19.639 200.497 19.025 200.499 Z M 19.025 199.382 C 19.155 199.384 19.265 199.362 19.355 199.315 C 19.446 199.27 19.513 199.192 19.559 199.084 C 19.606 198.977 19.628 198.829 19.628 198.645 L 19.628 197.472 C 19.628 197.288 19.606 197.141 19.559 197.033 C 19.513 196.925 19.446 196.849 19.355 196.802 C 19.265 196.756 19.155 196.733 19.025 196.735 L 18.444 196.735 L 18.444 199.382 L 19.025 199.382 Z M 26.407 192.681 C 26.347 192.824 26.31 192.971 26.293 193.122 C 26.278 193.273 26.27 193.442 26.272 193.63 L 26.272 194.837 C 26.274 195.108 26.248 195.354 26.198 195.57 C 26.146 195.788 26.06 195.974 25.941 196.128 C 25.822 196.283 25.66 196.404 25.457 196.489 L 25.457 196.512 C 25.731 196.64 25.932 196.834 26.064 197.094 C 26.196 197.355 26.261 197.684 26.261 198.087 L 26.261 198.701 C 26.263 199.103 26.2 199.438 26.071 199.704 C 25.945 199.97 25.747 200.17 25.479 200.302 C 25.209 200.434 24.863 200.499 24.441 200.499 L 22.587 200.499 L 22.587 192.681 L 23.815 192.681 L 23.815 195.864 L 24.24 195.864 C 24.426 195.866 24.578 195.832 24.696 195.767 C 24.815 195.702 24.902 195.596 24.96 195.451 C 25.016 195.304 25.044 195.11 25.044 194.87 L 25.044 193.641 C 25.044 193.483 25.048 193.353 25.051 193.251 C 25.057 193.148 25.064 193.064 25.075 192.997 C 25.085 192.932 25.096 192.874 25.111 192.826 C 25.124 192.777 25.139 192.729 25.156 192.681 L 26.407 192.681 Z M 24.407 199.382 C 24.623 199.384 24.783 199.319 24.884 199.191 C 24.984 199.06 25.035 198.855 25.033 198.578 L 25.033 197.808 C 25.033 197.601 25.003 197.437 24.943 197.316 C 24.884 197.195 24.8 197.107 24.69 197.055 C 24.58 197.005 24.448 196.979 24.296 196.981 L 23.815 196.981 L 23.815 199.382 L 24.407 199.382 Z M 29.365 198.701 C 29.366 198.978 29.424 199.176 29.536 199.297 C 29.649 199.416 29.804 199.475 30.001 199.471 C 30.199 199.475 30.353 199.416 30.467 199.297 C 30.578 199.176 30.636 198.978 30.638 198.701 L 30.638 194.479 C 30.636 194.202 30.578 194.004 30.467 193.883 C 30.353 193.764 30.199 193.705 30.001 193.708 C 29.804 193.705 29.649 193.764 29.536 193.883 C 29.424 194.004 29.366 194.202 29.365 194.479 L 29.365 198.701 Z M 28.136 194.557 C 28.136 194.138 28.209 193.785 28.352 193.492 C 28.495 193.2 28.704 192.977 28.981 192.822 C 29.258 192.67 29.599 192.593 30.001 192.591 C 30.403 192.593 30.744 192.67 31.021 192.822 C 31.299 192.977 31.507 193.2 31.651 193.492 C 31.794 193.785 31.867 194.138 31.867 194.557 L 31.867 198.623 C 31.867 199.041 31.794 199.397 31.651 199.689 C 31.507 199.982 31.299 200.203 31.021 200.358 C 30.744 200.51 30.403 200.587 30.001 200.589 C 29.599 200.587 29.258 200.51 28.981 200.358 C 28.704 200.203 28.495 199.982 28.352 199.689 C 28.209 199.397 28.136 199.041 28.136 198.623 L 28.136 194.557 Z M 33.663 198.623 C 33.663 198.401 33.684 198.191 33.73 197.992 C 33.775 197.792 33.849 197.597 33.953 197.403 C 34.058 197.212 34.196 197.016 34.37 196.815 C 34.544 196.614 34.759 196.402 35.014 196.177 C 35.281 195.944 35.491 195.735 35.644 195.551 C 35.798 195.365 35.906 195.186 35.971 195.015 C 36.035 194.846 36.066 194.667 36.064 194.479 C 36.064 194.293 36.038 194.146 35.986 194.034 C 35.934 193.922 35.861 193.842 35.767 193.792 C 35.672 193.742 35.558 193.718 35.428 193.719 C 35.297 193.718 35.184 193.742 35.089 193.792 C 34.994 193.842 34.922 193.922 34.869 194.034 C 34.817 194.146 34.791 194.293 34.791 194.479 L 34.791 195.037 L 33.629 195.037 L 33.629 194.557 C 33.629 194.138 33.698 193.785 33.836 193.492 C 33.974 193.2 34.179 192.977 34.45 192.822 C 34.722 192.67 35.059 192.593 35.461 192.591 C 35.863 192.593 36.2 192.67 36.472 192.822 C 36.744 192.977 36.949 193.2 37.086 193.492 C 37.224 193.785 37.293 194.138 37.293 194.557 C 37.295 194.779 37.273 194.989 37.226 195.188 C 37.181 195.389 37.107 195.585 37.003 195.776 C 36.898 195.968 36.761 196.164 36.586 196.365 C 36.413 196.566 36.199 196.778 35.941 197.003 C 35.675 197.236 35.465 197.444 35.312 197.631 C 35.158 197.815 35.05 197.993 34.985 198.165 C 34.922 198.334 34.89 198.515 34.892 198.701 C 34.893 198.978 34.946 199.176 35.052 199.297 C 35.158 199.416 35.309 199.475 35.506 199.471 C 35.703 199.475 35.854 199.416 35.96 199.297 C 36.066 199.176 36.118 198.978 36.12 198.701 L 36.12 198.377 L 37.282 198.377 L 37.282 198.623 C 37.282 199.041 37.213 199.397 37.079 199.689 C 36.943 199.982 36.74 200.203 36.472 200.358 C 36.204 200.51 35.871 200.587 35.473 200.589 C 35.074 200.587 34.741 200.51 34.473 200.358 C 34.205 200.203 34.002 199.982 33.866 199.689 C 33.732 199.397 33.663 199.041 33.663 198.623 Z M 38.799 199.382 L 40.083 199.382 L 40.083 192.681 L 41.312 192.681 L 41.312 199.382 L 42.597 199.382 L 42.597 200.499 L 38.799 200.499 L 38.799 199.382 Z M 45.421 198.701 C 45.422 198.978 45.48 199.176 45.592 199.297 C 45.705 199.416 45.86 199.475 46.057 199.471 C 46.255 199.475 46.409 199.416 46.523 199.297 C 46.634 199.176 46.692 198.978 46.694 198.701 L 46.694 194.479 C 46.692 194.202 46.634 194.004 46.523 193.883 C 46.409 193.764 46.255 193.705 46.057 193.708 C 45.86 193.705 45.705 193.764 45.592 193.883 C 45.48 194.004 45.422 194.202 45.421 194.479 L 45.421 198.701 Z M 44.192 194.557 C 44.192 194.138 44.265 193.785 44.408 193.492 C 44.551 193.2 44.76 192.977 45.037 192.822 C 45.314 192.67 45.655 192.593 46.057 192.591 C 46.459 192.593 46.8 192.67 47.077 192.822 C 47.355 192.977 47.563 193.2 47.707 193.492 C 47.85 193.785 47.923 194.138 47.923 194.557 L 47.923 198.623 C 47.923 199.041 47.85 199.397 47.707 199.689 C 47.563 199.982 47.355 200.203 47.077 200.358 C 46.8 200.51 46.459 200.587 46.057 200.589 C 45.655 200.587 45.314 200.51 45.037 200.358 C 44.76 200.203 44.551 199.982 44.408 199.689 C 44.265 199.397 44.192 199.041 44.192 198.623 L 44.192 194.557 Z M 58.236 198.623 C 58.236 198.401 58.257 198.191 58.303 197.992 C 58.348 197.792 58.422 197.597 58.526 197.403 C 58.631 197.212 58.769 197.016 58.943 196.815 C 59.117 196.614 59.332 196.402 59.587 196.177 C 59.854 195.944 60.064 195.735 60.217 195.551 C 60.371 195.365 60.479 195.186 60.544 195.015 C 60.608 194.846 60.639 194.667 60.637 194.479 C 60.637 194.293 60.611 194.146 60.559 194.034 C 60.507 193.922 60.434 193.842 60.339 193.792 C 60.245 193.742 60.131 193.718 60.001 193.719 C 59.87 193.718 59.757 193.742 59.662 193.792 C 59.567 193.842 59.494 193.922 59.442 194.034 C 59.39 194.146 59.364 194.293 59.364 194.479 L 59.364 195.037 L 58.202 195.037 L 58.202 194.557 C 58.202 194.138 58.271 193.785 58.409 193.492 C 58.547 193.2 58.752 192.977 59.023 192.822 C 59.295 192.67 59.632 192.593 60.034 192.591 C 60.436 192.593 60.773 192.67 61.045 192.822 C 61.317 192.977 61.522 193.2 61.659 193.492 C 61.797 193.785 61.866 194.138 61.866 194.557 C 61.868 194.779 61.846 194.989 61.799 195.188 C 61.754 195.389 61.68 195.585 61.576 195.776 C 61.471 195.968 61.334 196.164 61.159 196.365 C 60.986 196.566 60.771 196.778 60.514 197.003 C 60.248 197.236 60.038 197.444 59.885 197.631 C 59.731 197.815 59.623 197.993 59.558 198.165 C 59.494 198.334 59.463 198.515 59.465 198.701 C 59.466 198.978 59.519 199.176 59.625 199.297 C 59.731 199.416 59.882 199.475 60.079 199.471 C 60.276 199.475 60.427 199.416 60.533 199.297 C 60.639 199.176 60.691 198.978 60.693 198.701 L 60.693 198.377 L 61.855 198.377 L 61.855 198.623 C 61.855 199.041 61.786 199.397 61.652 199.689 C 61.516 199.982 61.313 200.203 61.045 200.358 C 60.777 200.51 60.444 200.587 60.046 200.589 C 59.647 200.587 59.314 200.51 59.046 200.358 C 58.778 200.203 58.575 199.982 58.439 199.689 C 58.305 199.397 58.236 199.041 58.236 198.623 Z M 63.651 200.499 L 63.651 199.382 L 65.874 199.382 L 63.54 193.775 L 63.54 192.681 L 67.136 192.681 L 67.136 193.798 L 64.802 193.798 L 67.136 199.405 L 67.136 200.499 L 63.651 200.499 Z M 70.172 192.681 L 71.401 192.681 L 71.401 195.272 L 72.954 200.499 L 71.781 200.499 L 70.854 196.936 L 70.831 196.936 L 69.904 200.499 L 68.62 200.499 L 70.172 195.272 L 70.172 192.681 Z M 76.459 200.499 L 74.605 200.499 L 74.605 192.681 L 76.537 192.681 C 77.153 192.683 77.617 192.841 77.931 193.156 C 78.244 193.47 78.402 193.93 78.402 194.535 L 78.402 195.172 C 78.406 195.587 78.335 195.935 78.192 196.218 C 78.049 196.499 77.812 196.705 77.487 196.836 L 77.487 196.858 C 77.758 196.985 77.959 197.178 78.088 197.435 C 78.216 197.692 78.281 198.022 78.279 198.422 L 78.279 198.701 C 78.281 199.103 78.218 199.438 78.09 199.704 C 77.963 199.97 77.766 200.17 77.498 200.302 C 77.228 200.434 76.882 200.499 76.459 200.499 Z M 76.381 196.199 C 76.567 196.201 76.718 196.173 76.835 196.115 C 76.952 196.056 77.038 195.957 77.092 195.819 C 77.148 195.68 77.174 195.49 77.174 195.25 L 77.174 194.568 C 77.174 194.377 77.149 194.224 77.101 194.11 C 77.053 193.997 76.98 193.917 76.885 193.868 C 76.792 193.82 76.675 193.796 76.537 193.798 L 75.833 193.798 L 75.833 196.199 L 76.381 196.199 Z M 76.426 199.382 C 76.641 199.384 76.801 199.319 76.902 199.191 C 77.002 199.06 77.053 198.855 77.051 198.578 L 77.051 198.143 C 77.051 197.936 77.021 197.772 76.962 197.651 C 76.902 197.53 76.818 197.442 76.708 197.391 C 76.598 197.34 76.466 197.314 76.314 197.316 L 75.833 197.316 L 75.833 199.382 L 76.426 199.382 Z M 83.103 192.681 L 84.365 192.681 L 82.656 197.014 L 84.365 200.499 L 83.136 200.499 L 81.55 197.115 L 81.528 197.115 L 81.528 200.499 L 80.299 200.499 L 80.299 192.681 L 81.528 192.681 L 81.528 195.082 L 81.908 195.797 L 83.103 192.681 Z M 87.133 198.701 C 87.135 198.978 87.193 199.176 87.304 199.297 C 87.418 199.416 87.572 199.475 87.77 199.471 C 87.967 199.475 88.122 199.416 88.235 199.297 C 88.347 199.176 88.404 198.978 88.406 198.701 L 88.406 194.479 C 88.404 194.202 88.347 194.004 88.235 193.883 C 88.122 193.764 87.967 193.705 87.77 193.708 C 87.572 193.705 87.418 193.764 87.304 193.883 C 87.193 194.004 87.135 194.202 87.133 194.479 L 87.133 198.701 Z M 85.904 194.557 C 85.904 194.138 85.977 193.785 86.12 193.492 C 86.264 193.2 86.472 192.977 86.75 192.822 C 87.027 192.67 87.368 192.593 87.77 192.591 C 88.172 192.593 88.512 192.67 88.79 192.822 C 89.067 192.977 89.276 193.2 89.419 193.492 C 89.562 193.785 89.635 194.138 89.635 194.557 L 89.635 198.623 C 89.635 199.041 89.562 199.397 89.419 199.689 C 89.276 199.982 89.067 200.203 88.79 200.358 C 88.512 200.51 88.172 200.587 87.77 200.589 C 87.368 200.587 87.027 200.51 86.75 200.358 C 86.472 200.203 86.264 199.982 86.12 199.689 C 85.977 199.397 85.904 199.041 85.904 198.623 L 85.904 194.557 Z M 103.277 192.681 L 104.908 192.681 L 105.779 200.499 L 104.707 200.499 L 104.081 194.289 L 104.059 194.289 L 103.456 200.499 L 102.272 200.499 L 101.691 194.334 L 101.668 194.334 L 101.021 200.499 L 99.826 200.499 L 100.697 192.681 L 102.383 192.681 L 102.819 196.847 L 102.841 196.847 L 103.277 192.681 Z M 108.703 192.681 L 109.932 192.681 L 109.932 195.272 L 111.484 200.499 L 110.311 200.499 L 109.385 196.936 L 109.362 196.936 L 108.435 200.499 L 107.151 200.499 L 108.703 195.272 L 108.703 192.681 Z M 114.811 195.92 L 115.37 195.92 L 115.37 194.479 C 115.37 194.295 115.344 194.146 115.291 194.034 C 115.239 193.922 115.167 193.842 115.072 193.792 C 114.977 193.742 114.863 193.718 114.733 193.719 C 114.603 193.718 114.489 193.742 114.394 193.792 C 114.299 193.842 114.226 193.922 114.174 194.034 C 114.122 194.146 114.096 194.295 114.096 194.479 L 114.096 198.701 C 114.098 198.978 114.156 199.176 114.268 199.297 C 114.381 199.416 114.535 199.475 114.733 199.471 C 114.93 199.475 115.085 199.416 115.198 199.297 C 115.31 199.176 115.368 198.978 115.37 198.701 L 115.37 197.863 L 116.531 197.863 L 116.531 198.623 C 116.531 199.041 116.462 199.397 116.324 199.689 C 116.187 199.982 115.982 200.203 115.71 200.358 C 115.438 200.51 115.101 200.587 114.699 200.589 C 114.297 200.587 113.96 200.51 113.689 200.358 C 113.417 200.203 113.212 199.982 113.074 199.689 C 112.936 199.397 112.867 199.041 112.867 198.623 L 112.867 194.557 C 112.867 194.138 112.936 193.785 113.074 193.492 C 113.212 193.2 113.417 192.977 113.689 192.822 C 113.96 192.67 114.297 192.593 114.699 192.591 C 115.101 192.593 115.438 192.67 115.71 192.822 C 115.982 192.977 116.187 193.2 116.324 193.492 C 116.462 193.785 116.531 194.138 116.531 194.557 L 116.531 197.037 L 114.811 197.037 L 114.811 195.92 Z M 119.612 198.701 C 119.614 198.978 119.672 199.176 119.783 199.297 C 119.897 199.416 120.051 199.475 120.249 199.471 C 120.446 199.475 120.601 199.416 120.714 199.297 C 120.826 199.176 120.884 198.978 120.886 198.701 L 120.886 194.479 C 120.884 194.202 120.826 194.004 120.714 193.883 C 120.601 193.764 120.446 193.705 120.249 193.708 C 120.051 193.705 119.897 193.764 119.783 193.883 C 119.672 194.004 119.614 194.202 119.612 194.479 L 119.612 198.701 Z M 118.383 194.557 C 118.383 194.138 118.456 193.785 118.599 193.492 C 118.743 193.2 118.951 192.977 119.229 192.822 C 119.506 192.67 119.847 192.593 120.249 192.591 C 120.651 192.593 120.992 192.67 121.269 192.822 C 121.546 192.977 121.755 193.2 121.898 193.492 C 122.042 193.785 122.114 194.138 122.114 194.557 L 122.114 198.623 C 122.114 199.041 122.042 199.397 121.898 199.689 C 121.755 199.982 121.546 200.203 121.269 200.358 C 120.992 200.51 120.651 200.587 120.249 200.589 C 119.847 200.587 119.506 200.51 119.229 200.358 C 118.951 200.203 118.743 199.982 118.599 199.689 C 118.456 199.397 118.383 199.041 118.383 198.623 L 118.383 194.557 Z M 124.067 192.681 L 126.01 192.681 C 126.625 192.683 127.083 192.848 127.388 193.178 C 127.691 193.507 127.842 193.986 127.842 194.613 L 127.842 198.567 C 127.842 199.194 127.691 199.673 127.388 200.002 C 127.083 200.331 126.625 200.497 126.01 200.499 L 124.067 200.499 L 124.067 192.681 Z M 125.988 199.382 C 126.118 199.384 126.23 199.36 126.325 199.31 C 126.418 199.259 126.489 199.179 126.539 199.068 C 126.587 198.956 126.614 198.809 126.614 198.623 L 126.614 194.557 C 126.614 194.371 126.587 194.224 126.539 194.112 C 126.489 194.001 126.418 193.921 126.325 193.87 C 126.23 193.82 126.118 193.796 125.988 193.798 L 125.295 193.798 L 125.295 199.382 L 125.988 199.382 Z M 132.409 192.681 L 133.671 192.681 L 133.671 200.499 L 132.576 200.499 L 132.576 195.819 L 132.554 195.819 L 131.314 200.499 L 129.773 200.499 L 129.773 192.681 L 130.878 192.681 L 130.878 198.344 L 130.901 198.344 L 132.409 192.681 Z M 135.713 192.681 L 136.942 192.681 L 136.942 200.499 L 135.713 200.499 Z M 140.223 199.382 L 142.346 199.382 L 142.346 200.499 L 138.995 200.499 L 138.995 192.681 L 142.346 192.681 L 142.346 193.798 L 140.223 193.798 L 140.223 196.087 L 141.91 196.087 L 141.91 197.204 L 140.223 197.204 L 140.223 199.382 " fill="#939598"/>
<path transform="matrix(1,0,0,-1,0,497)" d="M .526 243.308 C .25 243.308 .026 243.532 .026 243.808 C .026 244.084 .25 244.308 .526 244.308 L 158.902 244.308 C 159.178 244.308 159.402 244.084 159.402 243.808 C 159.402 243.532 159.178 243.308 158.902 243.308 L .526 243.308 " fill="#231f20"/>
<path transform="matrix(1,0,0,-1,0,497)" d="M .526 206.005 C .25 206.005 .026 206.229 .026 206.505 C .026 206.781 .25 207.005 .526 207.005 L 158.902 207.005 C 159.178 207.005 159.402 206.781 159.402 206.505 C 159.402 206.229 159.178 206.005 158.902 206.005 L .526 206.005 " fill="#231f20"/>
<path transform="matrix(1,0,0,-1,0,497)" d="M 53.481 198.184 C 54.362 198.184 55.075 197.47 55.075 196.59 C 55.075 195.71 54.362 194.996 53.481 194.996 C 52.601 194.996 51.888 195.71 51.888 196.59 C 51.888 197.47 52.601 198.184 53.481 198.184 " fill="#939598" fill-rule="evenodd"/>
<path transform="matrix(1,0,0,-1,0,497)" d="M 95.013 198.184 C 95.893 198.184 96.607 197.47 96.607 196.59 C 96.607 195.71 95.893 194.996 95.013 194.996 C 94.133 194.996 93.419 195.71 93.419 196.59 C 93.419 197.47 94.133 198.184 95.013 198.184 " fill="#939598" fill-rule="evenodd"/>
<path transform="matrix(1,0,0,-1,0,497)" d="M 98.522 80.602 L 80.791 68.47 L 87.369 63.156 L 100.757 75.756 L 98.522 80.602 Z M 87.275 75.872 C 86.873 75.956 86.57 76.314 86.57 76.74 L 86.57 80.853 C 86.57 81.341 86.969 81.74 87.457 81.74 L 91.57 81.74 C 92.058 81.74 92.457 81.341 92.457 80.853 L 92.457 79.418 L 87.275 75.872 Z M 81.77 75.853 L 77.657 75.853 C 77.169 75.853 76.77 76.252 76.77 76.74 L 76.77 80.853 C 76.77 81.341 77.169 81.74 77.657 81.74 L 81.77 81.74 C 82.258 81.74 82.658 81.341 82.658 80.853 L 82.658 76.74 C 82.658 76.252 82.258 75.853 81.77 75.853 Z M 72.153 75.872 C 72.555 75.956 72.858 76.314 72.858 76.74 L 72.858 80.853 C 72.858 81.341 72.459 81.74 71.971 81.74 L 67.858 81.74 C 67.369 81.74 66.97 81.341 66.97 80.853 L 66.97 79.418 L 72.153 75.872 Z M 91.57 84.684 L 87.457 84.684 C 86.969 84.684 86.57 85.084 86.57 85.571 L 86.57 89.685 C 86.57 90.173 86.969 90.572 87.457 90.572 L 91.57 90.572 C 92.058 90.572 92.457 90.173 92.457 89.685 L 92.457 85.571 C 92.457 85.084 92.058 84.684 91.57 84.684 Z M 81.77 84.684 L 77.657 84.684 C 77.169 84.684 76.77 85.084 76.77 85.571 L 76.77 89.685 C 76.77 90.173 77.169 90.572 77.657 90.572 L 81.77 90.572 C 82.258 90.572 82.658 90.173 82.658 89.685 L 82.658 85.571 C 82.658 85.084 82.258 84.684 81.77 84.684 Z M 67.858 84.684 L 71.971 84.684 C 72.459 84.684 72.858 85.084 72.858 85.571 L 72.858 89.685 C 72.858 90.173 72.459 90.572 71.971 90.572 L 67.858 90.572 C 67.369 90.572 66.97 90.173 66.97 89.685 L 66.97 85.571 C 66.97 85.084 67.369 84.684 67.858 84.684 Z M 91.57 99.404 L 87.457 99.404 C 86.969 99.404 86.57 99.005 86.57 98.517 L 86.57 94.403 C 86.57 93.915 86.969 93.516 87.457 93.516 L 91.57 93.516 C 92.058 93.516 92.457 93.915 92.457 94.403 L 92.457 98.517 C 92.457 99.005 92.058 99.404 91.57 99.404 Z M 81.77 99.404 L 77.657 99.404 C 77.169 99.404 76.77 99.005 76.77 98.517 L 76.77 94.403 C 76.77 93.915 77.169 93.516 77.657 93.516 L 81.77 93.516 C 82.258 93.516 82.658 93.915 82.658 94.403 L 82.658 98.517 C 82.658 99.005 82.258 99.404 81.77 99.404 Z M 67.858 99.404 L 71.971 99.404 C 72.459 99.404 72.858 99.005 72.858 98.517 L 72.858 94.403 C 72.858 93.915 72.459 93.516 71.971 93.516 L 67.858 93.516 C 67.369 93.516 66.97 93.915 66.97 94.403 L 66.97 98.517 C 66.97 99.005 67.369 99.404 67.858 99.404 Z M 67.858 108.316 L 91.57 108.316 C 92.058 108.316 92.457 107.917 92.457 107.429 L 92.457 103.316 C 92.457 102.828 92.058 102.428 91.57 102.428 L 67.858 102.428 C 67.369 102.428 66.97 102.828 66.97 103.316 L 66.97 107.429 C 66.97 107.917 67.369 108.316 67.858 108.316 Z M 101.948 76.25 L 106.077 76.25 C 109.727 76.25 113.045 74.757 115.45 72.351 C 117.856 69.946 119.349 66.628 119.349 62.978 L 119.349 52.64 C 119.349 52.284 119.06 51.995 118.703 51.995 C 118.347 51.995 118.058 52.284 118.058 52.64 L 118.058 62.978 C 118.058 66.272 116.71 69.267 114.538 71.439 C 112.366 73.611 109.371 74.959 106.077 74.959 L 101.79 74.959 L 87.842 61.834 C 87.612 61.617 87.252 61.597 86.998 61.801 L 85.363 63.122 C 85.236 62.707 85.026 62.327 84.757 62.006 L 84.37 52.615 C 84.357 52.26 84.057 51.983 83.702 51.997 C 83.347 52.011 83.071 52.311 83.085 52.665 L 83.431 61.078 C 83.14 60.976 82.833 60.92 82.519 60.92 L 76.906 60.92 C 76.593 60.92 76.287 60.976 75.997 61.078 L 76.343 52.665 C 76.357 52.311 76.08 52.011 75.725 51.997 C 75.37 51.983 75.071 52.26 75.057 52.615 L 74.671 62.004 C 74.401 62.326 74.191 62.705 74.065 63.122 L 72.43 61.801 C 72.176 61.597 71.815 61.617 71.585 61.834 L 57.638 74.959 L 53.351 74.959 C 50.057 74.959 47.061 73.611 44.89 71.439 C 42.718 69.267 41.369 66.272 41.369 62.978 L 41.369 52.64 C 41.369 52.284 41.08 51.995 40.724 51.995 C 40.368 51.995 40.079 52.284 40.079 52.64 L 40.079 62.978 C 40.079 66.628 41.572 69.946 43.977 72.352 C 46.382 74.757 49.701 76.25 53.351 76.25 L 57.48 76.25 L 60.056 81.833 C 60.205 82.156 60.587 82.297 60.91 82.148 C 60.948 82.131 60.984 82.11 61.016 82.087 L 62.78 80.88 L 62.78 108.905 C 62.78 109.996 63.227 110.988 63.945 111.707 C 64.664 112.425 65.656 112.872 66.747 112.872 L 92.681 112.872 C 93.772 112.872 94.764 112.425 95.483 111.707 L 95.483 111.704 C 96.201 110.986 96.647 109.995 96.647 108.905 L 96.647 80.88 L 98.411 82.087 C 98.444 82.11 98.48 82.131 98.518 82.148 C 98.84 82.297 99.223 82.156 99.372 81.833 L 101.948 76.25 Z M 54.557 54.577 L 54.557 59.232 C 54.557 59.588 54.268 59.878 53.912 59.878 C 53.555 59.878 53.266 59.588 53.266 59.232 L 53.266 52.64 C 53.266 52.284 53.555 51.995 53.912 51.995 C 54.268 51.995 54.557 52.284 54.557 52.64 L 54.557 54.577 Z M 106.162 54.577 L 106.162 59.232 C 106.162 59.588 105.873 59.878 105.517 59.878 C 105.16 59.878 104.871 59.588 104.871 59.232 L 104.871 52.64 C 104.871 52.284 105.16 51.995 105.517 51.995 C 105.873 51.995 106.162 52.284 106.162 52.64 L 106.162 54.577 Z M 75.205 64.043 L 75.234 63.802 C 75.288 63.354 75.505 62.955 75.813 62.668 C 76.117 62.384 76.505 62.211 76.906 62.211 L 82.519 62.211 C 82.92 62.211 83.309 62.384 83.614 62.669 C 83.922 62.956 84.14 63.355 84.194 63.804 L 84.223 64.043 L 79.714 67.685 L 75.205 64.043 Z M 95.357 79.997 L 95.357 108.905 C 95.357 109.641 95.056 110.311 94.572 110.796 L 94.57 110.794 C 94.085 111.28 93.416 111.581 92.681 111.581 L 66.747 111.581 C 66.012 111.581 65.343 111.28 64.857 110.794 C 64.372 110.309 64.071 109.64 64.071 108.905 L 64.071 79.997 L 79.714 69.293 L 95.357 79.997 Z M 78.637 68.47 L 60.906 80.602 L 58.67 75.756 L 72.058 63.156 L 78.637 68.47 " fill="#231f20"/>
<path transform="matrix(1,0,0,-1,0,497)" d="M 9.513 22.756 L 13.085 22.756 L 8.249 35.019 L 13.085 44.881 L 9.608 44.881 L 5.12 35.304 L 5.057 35.304 L 5.057 44.881 L 1.58 44.881 L 1.58 22.756 L 5.057 22.756 L 5.057 29.551 L 6.131 31.574 L 9.513 22.756 Z M 14.064 39.571 C 14.064 38.944 14.123 38.349 14.254 37.785 C 14.381 37.221 14.591 36.668 14.886 36.12 C 15.181 35.578 15.571 35.025 16.066 34.456 C 16.556 33.887 17.167 33.286 17.889 32.649 C 18.642 31.99 19.238 31.4 19.67 30.879 C 20.107 30.352 20.412 29.846 20.597 29.362 C 20.776 28.882 20.865 28.376 20.86 27.844 C 20.86 27.318 20.787 26.902 20.639 26.586 C 20.491 26.269 20.286 26.043 20.017 25.901 C 19.748 25.758 19.427 25.69 19.059 25.695 C 18.69 25.69 18.368 25.758 18.1 25.901 C 17.831 26.043 17.626 26.269 17.478 26.586 C 17.331 26.902 17.257 27.318 17.257 27.844 L 17.257 29.425 L 13.97 29.425 L 13.97 28.066 C 13.97 26.88 14.165 25.879 14.554 25.053 C 14.944 24.225 15.524 23.593 16.293 23.156 C 17.062 22.724 18.015 22.508 19.153 22.503 C 20.291 22.508 21.245 22.724 22.014 23.156 C 22.783 23.593 23.362 24.225 23.752 25.053 C 24.142 25.879 24.337 26.88 24.337 28.066 C 24.342 28.693 24.279 29.288 24.147 29.852 C 24.021 30.421 23.81 30.974 23.515 31.516 C 23.22 32.059 22.83 32.612 22.335 33.181 C 21.845 33.75 21.24 34.351 20.512 34.988 C 19.759 35.646 19.164 36.236 18.732 36.763 C 18.295 37.285 17.989 37.79 17.805 38.275 C 17.626 38.754 17.536 39.266 17.541 39.792 C 17.547 40.577 17.694 41.136 17.994 41.478 C 18.295 41.815 18.722 41.984 19.28 41.973 C 19.838 41.984 20.265 41.815 20.565 41.478 C 20.865 41.136 21.013 40.577 21.018 39.792 L 21.018 38.876 L 24.305 38.876 L 24.305 39.571 C 24.305 40.756 24.11 41.763 23.731 42.589 C 23.347 43.417 22.772 44.044 22.014 44.481 C 21.255 44.913 20.312 45.129 19.185 45.134 C 18.058 45.129 17.115 44.913 16.356 44.481 C 15.597 44.044 15.023 43.417 14.639 42.589 C 14.259 41.763 14.064 40.756 14.064 39.571 Z M 26.328 22.756 L 29.804999 22.756 L 29.804999 44.881 L 26.328 44.881 Z M 35.811 41.72 L 41.816 41.72 L 41.816 44.881 L 32.334 44.881 L 32.334 22.756 L 41.816 22.756 L 41.816 25.916 L 35.811 25.916 L 35.811 32.396 L 40.583 32.396 L 40.583 35.557 L 35.811 35.557 L 35.811 41.72 Z M 49.181 31.922 L 50.761 31.922 L 50.761 27.844 C 50.761 27.323 50.688 26.902 50.54 26.586 C 50.392 26.269 50.187 26.043 49.918 25.901 C 49.65 25.758 49.328 25.69 48.96 25.695 C 48.591 25.69 48.269 25.758 48.001 25.901 C 47.732 26.043 47.527 26.269 47.379 26.586 C 47.232 26.902 47.158 27.323 47.158 27.844 L 47.158 39.792 C 47.163 40.577 47.326 41.136 47.643 41.478 C 47.964 41.815 48.401 41.984 48.96 41.973 C 49.518 41.984 49.955 41.815 50.276 41.478 C 50.593 41.136 50.756 40.577 50.761 39.792 L 50.761 37.422 L 54.048 37.422 L 54.048 39.571 C 54.048 40.756 53.854 41.763 53.463 42.589 C 53.074 43.417 52.494 44.044 51.725 44.481 C 50.956 44.913 50.003 45.129 48.865 45.134 C 47.727 45.129 46.773 44.913 46.004 44.481 C 45.235 44.044 44.656 43.417 44.266 42.589 C 43.876 41.763 43.681 40.756 43.681 39.571 L 43.681 28.066 C 43.681 26.88 43.876 25.879 44.266 25.053 C 44.656 24.225 45.235 23.593 46.004 23.156 C 46.773 22.724 47.727 22.508 48.865 22.503 C 50.003 22.508 50.956 22.724 51.725 23.156 C 52.494 23.593 53.074 24.225 53.463 25.053 C 53.854 25.879 54.048 26.88 54.048 28.066 L 54.048 35.083 L 49.181 35.083 L 49.181 31.922 Z M 59.485 39.792 C 59.49 40.577 59.653 41.136 59.97 41.478 C 60.291 41.815 60.728 41.984 61.287 41.973 C 61.845 41.984 62.282 41.815 62.604 41.478 C 62.92 41.136 63.083 40.577 63.088 39.792 L 63.088 27.844 C 63.083 27.06 62.92 26.501 62.604 26.159 C 62.282 25.822 61.845 25.653 61.287 25.663 C 60.728 25.653 60.291 25.822 59.97 26.159 C 59.653 26.501 59.49 27.06 59.485 27.844 L 59.485 39.792 Z M 56.008 28.066 C 56.008 26.88 56.213 25.879 56.619 25.053 C 57.025 24.225 57.615 23.593 58.4 23.156 C 59.185 22.724 60.149 22.508 61.287 22.503 C 62.424 22.508 63.388 22.724 64.173 23.156 C 64.958 23.593 65.548 24.225 65.954 25.053 C 66.36 25.879 66.565 26.88 66.565 28.066 L 66.565 39.571 C 66.565 40.756 66.36 41.763 65.954 42.589 C 65.548 43.417 64.958 44.044 64.173 44.481 C 63.388 44.913 62.424 45.129 61.287 45.134 C 60.149 45.129 59.185 44.913 58.4 44.481 C 57.615 44.044 57.025 43.417 56.619 42.589 C 56.213 41.763 56.008 40.756 56.008 39.571 L 56.008 28.066 Z M 77.786 22.756 L 82.4 22.756 L 84.866 44.881 L 81.831 44.881 L 80.062 27.307 L 79.998 27.307 L 78.292 44.881 L 74.941 44.881 L 73.298 27.434 L 73.234 27.434 L 71.401 44.881 L 68.019 44.881 L 70.484 22.756 L 75.257 22.756 L 76.49 34.545 L 76.553 34.545 L 77.786 22.756 Z M 89.86 22.756 L 93.337 22.756 L 93.337 30.089 L 97.73 44.881 L 94.411 44.881 L 91.788 34.798 L 91.725 34.798 L 89.101 44.881 L 85.466 44.881 L 89.86 30.089 L 89.86 22.756 Z M 98.394 32.238 L 104.715999 32.238 L 104.715999 35.399 L 98.394 35.399 Z M 113.976 39.445 C 113.982 38.854 113.929 38.296 113.818 37.759 C 113.708 37.221 113.523 36.689 113.265 36.152 C 113.007 35.615 112.659 35.051 112.217 34.456 C 111.774 33.866 111.221 33.223 110.563 32.522 C 109.915 31.848 109.372 31.211 108.924 30.621 C 108.482 30.031 108.124 29.456 107.855 28.903 C 107.581 28.35 107.386 27.792 107.265 27.234 C 107.144 26.675 107.086 26.085 107.086 25.474 L 107.086 22.756 L 117.137 22.756 L 117.137 25.916 L 110.563 25.916 C 110.547 25.995 110.537 26.074 110.537 26.154 C 110.531 26.233 110.531 26.311 110.531 26.391 C 110.526 26.77 110.6 27.165 110.753 27.565 C 110.91 27.966 111.179 28.429 111.564 28.945 C 111.943 29.462 112.475 30.089 113.155 30.816 C 113.961 31.674 114.635 32.475 115.188 33.223 C 115.736 33.971 116.178 34.693 116.516 35.383 C 116.848 36.073 117.085 36.763 117.237 37.448 C 117.385 38.133 117.458 38.839 117.453 39.571 C 117.453 40.756 117.258 41.763 116.869 42.589 C 116.479 43.417 115.899 44.044 115.13 44.481 C 114.361 44.913 113.407 45.129 112.27 45.134 C 111.132 45.129 110.178 44.913 109.409 44.481 C 108.64 44.044 108.06 43.417 107.671 42.589 C 107.281 41.763 107.086 40.756 107.086 39.571 L 107.086 37.422 L 110.373 37.422 L 110.373 39.792 C 110.378 40.577 110.542 41.136 110.858 41.478 C 111.179 41.815 111.617 41.984 112.175 41.973 C 112.543 41.979 112.865 41.91 113.134 41.763 C 113.402 41.615 113.608 41.357 113.755 40.988 C 113.903 40.619 113.976 40.103 113.976 39.445 Z M 118.781 26.77 L 125.418 26.77 L 125.418 22.756 L 128.895 22.756 L 128.895 26.77 L 130.539 26.77 L 130.539 29.931 L 128.895 29.931 L 128.895 44.881 L 125.102 44.881 L 118.781 29.931 L 118.781 26.77 Z M 121.973 29.931 L 125.355 38.117 L 125.418 38.117 L 125.418 29.931 L 121.973 29.931 Z M 132.119 22.756 L 135.47 22.756 L 135.47 26.107 L 132.119 26.107 Z M 143.119 44.881 L 137.998 44.881 L 137.998 22.756 L 141.475 22.756 L 141.475 31.069 L 143.119 31.069 C 144.857 31.074 146.153 31.543 147.017 32.475 C 147.876 33.407 148.303 34.761 148.303 36.537 L 148.303 39.413 C 148.303 41.188 147.876 42.542 147.017 43.475 C 146.153 44.407 144.857 44.876 143.119 44.881 Z M 143.119 41.72 C 143.488 41.726 143.798 41.662 144.051 41.531 C 144.309 41.404 144.499 41.183 144.631 40.878 C 144.762 40.572 144.826 40.156 144.826 39.634 L 144.826 36.315 C 144.826 35.794 144.762 35.378 144.631 35.072 C 144.499 34.767 144.309 34.551 144.051 34.419 C 143.798 34.287 143.488 34.224 143.119 34.229 L 141.475 34.229 L 141.475 41.72 L 143.119 41.72 Z M 149.914 22.756 L 159.112 22.756 L 159.112 25.916 L 153.391 25.916 L 153.391 44.881 L 149.914 44.881 L 149.914 22.756 " fill="#231f20"/>
<path transform="matrix(1,0,0,-1,0,497)" d="M 19.025 8.686 L 17.216 8.686 L 17.216 .868 L 18.444 .868 L 18.444 3.806 L 19.025 3.806 C 19.639 3.807 20.097 3.973 20.403 4.303 C 20.706 4.632 20.857 5.111 20.857 5.738 L 20.857 6.754 C 20.857 7.382 20.706 7.86 20.403 8.19 C 20.097 8.519 19.639 8.685 19.025 8.686 Z M 19.025 7.57 C 19.155 7.572 19.265 7.549 19.355 7.503 C 19.446 7.458 19.513 7.38 19.559 7.272 C 19.606 7.164 19.628 7.017 19.628 6.833 L 19.628 5.66 C 19.628 5.475 19.606 5.329 19.559 5.221 C 19.513 5.113 19.446 5.036 19.355 4.99 C 19.265 4.943 19.155 4.921 19.025 4.923 L 18.444 4.923 L 18.444 7.57 L 19.025 7.57 Z M 26.407 .868 C 26.347 1.012 26.31 1.158 26.293 1.309 C 26.278 1.46 26.27 1.63 26.272 1.818 L 26.272 3.024 C 26.274 3.296 26.248 3.541 26.198 3.757 C 26.146 3.975 26.06 4.161 25.941 4.316 C 25.822 4.47 25.66 4.591 25.457 4.677 L 25.457 4.699 C 25.731 4.828 25.932 5.021 26.064 5.282 C 26.196 5.543 26.261 5.872 26.261 6.274 L 26.261 6.888 C 26.263 7.29 26.2 7.625 26.071 7.892 C 25.945 8.158 25.747 8.357 25.479 8.489 C 25.209 8.622 24.863 8.686 24.441 8.686 L 22.587 8.686 L 22.587 .868 L 23.815 .868 L 23.815 4.052 L 24.24 4.052 C 24.426 4.053 24.578 4.02 24.696 3.955 C 24.815 3.889 24.902 3.783 24.96 3.638 C 25.016 3.491 25.044 3.298 25.044 3.057 L 25.044 1.829 C 25.044 1.67 25.048 1.54 25.051 1.438 C 25.057 1.335 25.064 1.252 25.075 1.185 C 25.085 1.12 25.096 1.062 25.111 1.013 C 25.124 .965 25.139 .917 25.156 .868 L 26.407 .868 Z M 24.407 7.57 C 24.623 7.572 24.783 7.506 24.884 7.378 C 24.984 7.248 25.035 7.043 25.033 6.765 L 25.033 5.995 C 25.033 5.788 25.003 5.624 24.943 5.503 C 24.884 5.382 24.8 5.295 24.69 5.243 C 24.58 5.192 24.448 5.166 24.296 5.168 L 23.815 5.168 L 23.815 7.57 L 24.407 7.57 Z M 29.365 6.888 C 29.366 7.166 29.424 7.363 29.536 7.484 C 29.649 7.603 29.804 7.663 30.001 7.659 C 30.199 7.663 30.353 7.603 30.467 7.484 C 30.578 7.363 30.636 7.166 30.638 6.888 L 30.638 2.667 C 30.636 2.389 30.578 2.192 30.467 2.071 C 30.353 1.952 30.199 1.892 30.001 1.896 C 29.804 1.892 29.649 1.952 29.536 2.071 C 29.424 2.192 29.366 2.389 29.365 2.667 L 29.365 6.888 Z M 28.136 2.745 C 28.136 2.326 28.209 1.972 28.352 1.68 C 28.495 1.388 28.704 1.164 28.981 1.01 C 29.258 .857 29.599 .781 30.001 .779 C 30.403 .781 30.744 .857 31.021 1.01 C 31.299 1.164 31.507 1.388 31.651 1.68 C 31.794 1.972 31.867 2.326 31.867 2.745 L 31.867 6.81 C 31.867 7.229 31.794 7.585 31.651 7.877 C 31.507 8.169 31.299 8.391 31.021 8.545 C 30.744 8.698 30.403 8.774 30.001 8.776 C 29.599 8.774 29.258 8.698 28.981 8.545 C 28.704 8.391 28.495 8.169 28.352 7.877 C 28.209 7.585 28.136 7.229 28.136 6.81 L 28.136 2.745 Z M 33.663 6.81 C 33.663 6.589 33.684 6.378 33.73 6.179 C 33.775 5.98 33.849 5.784 33.953 5.591 C 34.058 5.399 34.196 5.204 34.37 5.003 C 34.544 4.802 34.759 4.589 35.014 4.364 C 35.281 4.131 35.491 3.923 35.644 3.739 C 35.798 3.553 35.906 3.374 35.971 3.203 C 36.035 3.033 36.066 2.854 36.064 2.667 C 36.064 2.48 36.038 2.333 35.986 2.221 C 35.934 2.11 35.861 2.03 35.767 1.979 C 35.672 1.929 35.558 1.905 35.428 1.907 C 35.297 1.905 35.184 1.929 35.089 1.979 C 34.994 2.03 34.922 2.11 34.869 2.221 C 34.817 2.333 34.791 2.48 34.791 2.667 L 34.791 3.225 L 33.629 3.225 L 33.629 2.745 C 33.629 2.326 33.698 1.972 33.836 1.68 C 33.974 1.388 34.179 1.164 34.45 1.01 C 34.722 .857 35.059 .781 35.461 .779 C 35.863 .781 36.2 .857 36.472 1.01 C 36.744 1.164 36.949 1.388 37.086 1.68 C 37.224 1.972 37.293 2.326 37.293 2.745 C 37.295 2.966 37.273 3.176 37.226 3.376 C 37.181 3.577 37.107 3.772 37.003 3.964 C 36.898 4.156 36.761 4.351 36.586 4.552 C 36.413 4.753 36.199 4.965 35.941 5.191 C 35.675 5.423 35.465 5.632 35.312 5.818 C 35.158 6.002 35.05 6.181 34.985 6.352 C 34.922 6.522 34.89 6.702 34.892 6.888 C 34.893 7.166 34.946 7.363 35.052 7.484 C 35.158 7.603 35.309 7.663 35.506 7.659 C 35.703 7.663 35.854 7.603 35.96 7.484 C 36.066 7.363 36.118 7.166 36.12 6.888 L 36.12 6.564 L 37.282 6.564 L 37.282 6.81 C 37.282 7.229 37.213 7.585 37.079 7.877 C 36.943 8.169 36.74 8.391 36.472 8.545 C 36.204 8.698 35.871 8.774 35.473 8.776 C 35.074 8.774 34.741 8.698 34.473 8.545 C 34.205 8.391 34.002 8.169 33.866 7.877 C 33.732 7.585 33.663 7.229 33.663 6.81 Z M 38.799 7.57 L 40.083 7.57 L 40.083 .868 L 41.312 .868 L 41.312 7.57 L 42.597 7.57 L 42.597 8.686 L 38.799 8.686 L 38.799 7.57 Z M 45.421 6.888 C 45.422 7.166 45.48 7.363 45.592 7.484 C 45.705 7.603 45.86 7.663 46.057 7.659 C 46.255 7.663 46.409 7.603 46.523 7.484 C 46.634 7.363 46.692 7.166 46.694 6.888 L 46.694 2.667 C 46.692 2.389 46.634 2.192 46.523 2.071 C 46.409 1.952 46.255 1.892 46.057 1.896 C 45.86 1.892 45.705 1.952 45.592 2.071 C 45.48 2.192 45.422 2.389 45.421 2.667 L 45.421 6.888 Z M 44.192 2.745 C 44.192 2.326 44.265 1.972 44.408 1.68 C 44.551 1.388 44.76 1.164 45.037 1.01 C 45.314 .857 45.655 .781 46.057 .779 C 46.459 .781 46.8 .857 47.077 1.01 C 47.355 1.164 47.563 1.388 47.707 1.68 C 47.85 1.972 47.923 2.326 47.923 2.745 L 47.923 6.81 C 47.923 7.229 47.85 7.585 47.707 7.877 C 47.563 8.169 47.355 8.391 47.077 8.545 C 46.8 8.698 46.459 8.774 46.057 8.776 C 45.655 8.774 45.314 8.698 45.037 8.545 C 44.76 8.391 44.551 8.169 44.408 7.877 C 44.265 7.585 44.192 7.229 44.192 6.81 L 44.192 2.745 Z M 58.236 6.81 C 58.236 6.589 58.257 6.378 58.303 6.179 C 58.348 5.98 58.422 5.784 58.526 5.591 C 58.631 5.399 58.769 5.204 58.943 5.003 C 59.117 4.802 59.332 4.589 59.587 4.364 C 59.854 4.131 60.064 3.923 60.217 3.739 C 60.371 3.553 60.479 3.374 60.544 3.203 C 60.608 3.033 60.639 2.854 60.637 2.667 C 60.637 2.48 60.611 2.333 60.559 2.221 C 60.507 2.11 60.434 2.03 60.339 1.979 C 60.245 1.929 60.131 1.905 60.001 1.907 C 59.87 1.905 59.757 1.929 59.662 1.979 C 59.567 2.03 59.494 2.11 59.442 2.221 C 59.39 2.333 59.364 2.48 59.364 2.667 L 59.364 3.225 L 58.202 3.225 L 58.202 2.745 C 58.202 2.326 58.271 1.972 58.409 1.68 C 58.547 1.388 58.752 1.164 59.023 1.01 C 59.295 .857 59.632 .781 60.034 .779 C 60.436 .781 60.773 .857 61.045 1.01 C 61.317 1.164 61.522 1.388 61.659 1.68 C 61.797 1.972 61.866 2.326 61.866 2.745 C 61.868 2.966 61.846 3.176 61.799 3.376 C 61.754 3.577 61.68 3.772 61.576 3.964 C 61.471 4.156 61.334 4.351 61.159 4.552 C 60.986 4.753 60.771 4.965 60.514 5.191 C 60.248 5.423 60.038 5.632 59.885 5.818 C 59.731 6.002 59.623 6.181 59.558 6.352 C 59.494 6.522 59.463 6.702 59.465 6.888 C 59.466 7.166 59.519 7.363 59.625 7.484 C 59.731 7.603 59.882 7.663 60.079 7.659 C 60.276 7.663 60.427 7.603 60.533 7.484 C 60.639 7.363 60.691 7.166 60.693 6.888 L 60.693 6.564 L 61.855 6.564 L 61.855 6.81 C 61.855 7.229 61.786 7.585 61.652 7.877 C 61.516 8.169 61.313 8.391 61.045 8.545 C 60.777 8.698 60.444 8.774 60.046 8.776 C 59.647 8.774 59.314 8.698 59.046 8.545 C 58.778 8.391 58.575 8.169 58.439 7.877 C 58.305 7.585 58.236 7.229 58.236 6.81 Z M 63.651 8.686 L 63.651 7.57 L 65.874 7.57 L 63.54 1.963 L 63.54 .868 L 67.136 .868 L 67.136 1.985 L 64.802 1.985 L 67.136 7.592 L 67.136 8.686 L 63.651 8.686 Z M 70.172 .868 L 71.401 .868 L 71.401 3.459 L 72.954 8.686 L 71.781 8.686 L 70.854 5.124 L 70.831 5.124 L 69.904 8.686 L 68.62 8.686 L 70.172 3.459 L 70.172 .868 Z M 76.459 8.686 L 74.605 8.686 L 74.605 .868 L 76.537 .868 C 77.153 .87 77.617 1.028 77.931 1.343 C 78.244 1.657 78.402 2.117 78.402 2.722 L 78.402 3.359 C 78.406 3.774 78.335 4.122 78.192 4.405 C 78.049 4.686 77.812 4.893 77.487 5.023 L 77.487 5.045 C 77.758 5.172 77.959 5.366 78.088 5.622 C 78.216 5.879 78.281 6.209 78.279 6.609 L 78.279 6.888 C 78.281 7.29 78.218 7.625 78.09 7.892 C 77.963 8.158 77.766 8.357 77.498 8.489 C 77.228 8.622 76.882 8.686 76.459 8.686 Z M 76.381 4.387 C 76.567 4.388 76.718 4.361 76.835 4.303 C 76.952 4.243 77.038 4.145 77.092 4.007 C 77.148 3.867 77.174 3.677 77.174 3.437 L 77.174 2.756 C 77.174 2.564 77.149 2.411 77.101 2.298 C 77.053 2.184 76.98 2.104 76.885 2.056 C 76.792 2.007 76.675 1.983 76.537 1.985 L 75.833 1.985 L 75.833 4.387 L 76.381 4.387 Z M 76.426 7.57 C 76.641 7.572 76.801 7.506 76.902 7.378 C 77.002 7.248 77.053 7.043 77.051 6.765 L 77.051 6.33 C 77.051 6.123 77.021 5.96 76.962 5.839 C 76.902 5.717 76.818 5.63 76.708 5.578 C 76.598 5.528 76.466 5.501 76.314 5.503 L 75.833 5.503 L 75.833 7.57 L 76.426 7.57 Z M 83.103 .868 L 84.365 .868 L 82.656 5.202 L 84.365 8.686 L 83.136 8.686 L 81.55 5.302 L 81.528 5.302 L 81.528 8.686 L 80.299 8.686 L 80.299 .868 L 81.528 .868 L 81.528 3.269 L 81.908 3.984 L 83.103 .868 Z M 87.133 6.888 C 87.135 7.166 87.193 7.363 87.304 7.484 C 87.418 7.603 87.572 7.663 87.77 7.659 C 87.967 7.663 88.122 7.603 88.235 7.484 C 88.347 7.363 88.404 7.166 88.406 6.888 L 88.406 2.667 C 88.404 2.389 88.347 2.192 88.235 2.071 C 88.122 1.952 87.967 1.892 87.77 1.896 C 87.572 1.892 87.418 1.952 87.304 2.071 C 87.193 2.192 87.135 2.389 87.133 2.667 L 87.133 6.888 Z M 85.904 2.745 C 85.904 2.326 85.977 1.972 86.12 1.68 C 86.264 1.388 86.472 1.164 86.75 1.01 C 87.027 .857 87.368 .781 87.77 .779 C 88.172 .781 88.512 .857 88.79 1.01 C 89.067 1.164 89.276 1.388 89.419 1.68 C 89.562 1.972 89.635 2.326 89.635 2.745 L 89.635 6.81 C 89.635 7.229 89.562 7.585 89.419 7.877 C 89.276 8.169 89.067 8.391 88.79 8.545 C 88.512 8.698 88.172 8.774 87.77 8.776 C 87.368 8.774 87.027 8.698 86.75 8.545 C 86.472 8.391 86.264 8.169 86.12 7.877 C 85.977 7.585 85.904 7.229 85.904 6.81 L 85.904 2.745 Z M 103.277 .868 L 104.908 .868 L 105.779 8.686 L 104.707 8.686 L 104.081 2.477 L 104.059 2.477 L 103.456 8.686 L 102.272 8.686 L 101.691 2.521 L 101.668 2.521 L 101.021 8.686 L 99.826 8.686 L 100.697 .868 L 102.383 .868 L 102.819 5.034 L 102.841 5.034 L 103.277 .868 Z M 108.703 .868 L 109.932 .868 L 109.932 3.459 L 111.484 8.686 L 110.311 8.686 L 109.385 5.124 L 109.362 5.124 L 108.435 8.686 L 107.151 8.686 L 108.703 3.459 L 108.703 .868 Z M 114.811 4.107 L 115.37 4.107 L 115.37 2.667 C 115.37 2.482 115.344 2.333 115.291 2.221 C 115.239 2.11 115.167 2.03 115.072 1.979 C 114.977 1.929 114.863 1.905 114.733 1.907 C 114.603 1.905 114.489 1.929 114.394 1.979 C 114.299 2.03 114.226 2.11 114.174 2.221 C 114.122 2.333 114.096 2.482 114.096 2.667 L 114.096 6.888 C 114.098 7.166 114.156 7.363 114.268 7.484 C 114.381 7.603 114.535 7.663 114.733 7.659 C 114.93 7.663 115.085 7.603 115.198 7.484 C 115.31 7.363 115.368 7.166 115.37 6.888 L 115.37 6.051 L 116.531 6.051 L 116.531 6.81 C 116.531 7.229 116.462 7.585 116.324 7.877 C 116.187 8.169 115.982 8.391 115.71 8.545 C 115.438 8.698 115.101 8.774 114.699 8.776 C 114.297 8.774 113.96 8.698 113.689 8.545 C 113.417 8.391 113.212 8.169 113.074 7.877 C 112.936 7.585 112.867 7.229 112.867 6.81 L 112.867 2.745 C 112.867 2.326 112.936 1.972 113.074 1.68 C 113.212 1.388 113.417 1.164 113.689 1.01 C 113.96 .857 114.297 .781 114.699 .779 C 115.101 .781 115.438 .857 115.71 1.01 C 115.982 1.164 116.187 1.388 116.324 1.68 C 116.462 1.972 116.531 2.326 116.531 2.745 L 116.531 5.224 L 114.811 5.224 L 114.811 4.107 Z M 119.612 6.888 C 119.614 7.166 119.672 7.363 119.783 7.484 C 119.897 7.603 120.051 7.663 120.249 7.659 C 120.446 7.663 120.601 7.603 120.714 7.484 C 120.826 7.363 120.884 7.166 120.886 6.888 L 120.886 2.667 C 120.884 2.389 120.826 2.192 120.714 2.071 C 120.601 1.952 120.446 1.892 120.249 1.896 C 120.051 1.892 119.897 1.952 119.783 2.071 C 119.672 2.192 119.614 2.389 119.612 2.667 L 119.612 6.888 Z M 118.383 2.745 C 118.383 2.326 118.456 1.972 118.599 1.68 C 118.743 1.388 118.951 1.164 119.229 1.01 C 119.506 .857 119.847 .781 120.249 .779 C 120.651 .781 120.992 .857 121.269 1.01 C 121.546 1.164 121.755 1.388 121.898 1.68 C 122.042 1.972 122.114 2.326 122.114 2.745 L 122.114 6.81 C 122.114 7.229 122.042 7.585 121.898 7.877 C 121.755 8.169 121.546 8.391 121.269 8.545 C 120.992 8.698 120.651 8.774 120.249 8.776 C 119.847 8.774 119.506 8.698 119.229 8.545 C 118.951 8.391 118.743 8.169 118.599 7.877 C 118.456 7.585 118.383 7.229 118.383 6.81 L 118.383 2.745 Z M 124.067 .868 L 126.01 .868 C 126.625 .87 127.083 1.036 127.388 1.365 C 127.691 1.695 127.842 2.173 127.842 2.801 L 127.842 6.754 C 127.842 7.382 127.691 7.86 127.388 8.19 C 127.083 8.519 126.625 8.685 126.01 8.686 L 124.067 8.686 L 124.067 .868 Z M 125.988 7.57 C 126.118 7.572 126.23 7.547 126.325 7.497 C 126.418 7.447 126.489 7.367 126.539 7.255 C 126.587 7.143 126.614 6.996 126.614 6.81 L 126.614 2.745 C 126.614 2.559 126.587 2.411 126.539 2.3 C 126.489 2.188 126.418 2.108 126.325 2.058 C 126.23 2.007 126.118 1.983 125.988 1.985 L 125.295 1.985 L 125.295 7.57 L 125.988 7.57 Z M 132.409 .868 L 133.671 .868 L 133.671 8.686 L 132.576 8.686 L 132.576 4.007 L 132.554 4.007 L 131.314 8.686 L 129.773 8.686 L 129.773 .868 L 130.878 .868 L 130.878 6.531 L 130.901 6.531 L 132.409 .868 Z M 135.713 .868 L 136.942 .868 L 136.942 8.686 L 135.713 8.686 Z M 140.223 7.57 L 142.346 7.57 L 142.346 8.686 L 138.995 8.686 L 138.995 .868 L 142.346 .868 L 142.346 1.985 L 140.223 1.985 L 140.223 4.275 L 141.91 4.275 L 141.91 5.392 L 140.223 5.392 L 140.223 7.57 " fill="#231f20"/>
<path transform="matrix(1,0,0,-1,0,497)" d="M .526 51.495 C .25 51.495 .026 51.719 .026 51.995 C .026 52.271 .25 52.495 .526 52.495 L 158.902 52.495 C 159.178 52.495 159.402 52.271 159.402 51.995 C 159.402 51.719 159.178 51.495 158.902 51.495 L .526 51.495 " fill="#231f20"/>
<path transform="matrix(1,0,0,-1,0,497)" d="M .526 14.193 C .25 14.193 .026 14.417 .026 14.693 C .026 14.969 .25 15.193 .526 15.193 L 158.902 15.193 C 159.178 15.193 159.402 14.969 159.402 14.693 C 159.402 14.417 159.178 14.193 158.902 14.193 L .526 14.193 " fill="#231f20"/>
<path transform="matrix(1,0,0,-1,0,497)" d="M 53.481 6.371 C 54.362 6.371 55.075 5.658 55.075 4.777 C 55.075 3.897 54.362 3.184 53.481 3.184 C 52.601 3.184 51.888 3.897 51.888 4.777 C 51.888 5.658 52.601 6.371 53.481 6.371 " fill="#231f20" fill-rule="evenodd"/>
<path transform="matrix(1,0,0,-1,0,497)" d="M 95.013 6.371 C 95.893 6.371 96.607 5.658 96.607 4.777 C 96.607 3.897 95.893 3.184 95.013 3.184 C 94.133 3.184 93.419 3.897 93.419 4.777 C 93.419 5.658 94.133 6.371 95.013 6.371 " fill="#231f20" fill-rule="evenodd"/>
</g>
</svg>
